//Event file generated from Sappy .s format.
	#include "MPlayDef.event"

	#define	FE4_Attack_grp  voicegroup000
	#define	FE4_Attack_pri  0
	#define	FE4_Attack_rev  0
	#define	FE4_Attack_mvl  127
	#define	FE4_Attack_key  0
	#define	FE4_Attack_tbs  1
	#define	FE4_Attack_exg  0
	#define	FE4_Attack_cmp  1

	// .rodata
	//	FE4_Attack
	ALIGN 4

//**************** Track 1 (Midi-Chn.1) ****************//

FE4_Attack_1:
	BYTE	KEYSH   FE4_Attack_key+0
// 000   ----------------------------------------
	BYTE	TEMPO   80*FE4_Attack_tbs/2
	BYTE		VOICE   106
	BYTE		VOL     78*FE4_Attack_mvl/mxv
	BYTE	W01
	BYTE		PAN     c_v+0
	BYTE	W15
	BYTE		        c_v-49
	BYTE		N10     Dn3   v044
	BYTE	W18
	BYTE		N09     Ds3   v040
	BYTE	W18
	BYTE		N40     En3   v064
	BYTE	W44
FE4_Attack_1_B1:
// 001   ----------------------------------------
	BYTE	W96
// 002   ----------------------------------------
	BYTE	W96
// 003   ----------------------------------------
	BYTE	W96
// 004   ----------------------------------------
	BYTE	W96
// 005   ----------------------------------------
	BYTE	W48
// 006   ----------------------------------------
	BYTE	W48
// 007   ----------------------------------------
	BYTE	W48
// 008   ----------------------------------------
	BYTE	W48
// 009   ----------------------------------------
	BYTE	W48
// 010   ----------------------------------------
	BYTE	W48
// 011   ----------------------------------------
	BYTE	W48
// 012   ----------------------------------------
	BYTE	W48
// 013   ----------------------------------------
	BYTE	W48
// 014   ----------------------------------------
	BYTE	W48
	BYTE	GoTo
	 POIN2	FE4_Attack_1_B1
FE4_Attack_1_B2:
// 015   ----------------------------------------
	BYTE	W48
// 016   ----------------------------------------
	BYTE	W48
// 017   ----------------------------------------
	BYTE	W48
// 018   ----------------------------------------
	BYTE	W48
// 019   ----------------------------------------
	BYTE	W48
// 020   ----------------------------------------
	BYTE	W48
// 021   ----------------------------------------
	BYTE	W48
// 022   ----------------------------------------
	BYTE	W48
// 023   ----------------------------------------
	BYTE	W48
// 024   ----------------------------------------
	BYTE	W48
// 025   ----------------------------------------
	BYTE	W48
// 026   ----------------------------------------
	BYTE	W48
// 027   ----------------------------------------
	BYTE	W48
// 028   ----------------------------------------
	BYTE	W48
// 029   ----------------------------------------
	BYTE	W48
// 030   ----------------------------------------
	BYTE	W48
// 031   ----------------------------------------
	BYTE	W48
// 032   ----------------------------------------
	BYTE	W48
// 033   ----------------------------------------
	BYTE	W48
// 034   ----------------------------------------
	BYTE	W48
// 035   ----------------------------------------
	BYTE	W48
// 036   ----------------------------------------
	BYTE	W48
// 037   ----------------------------------------
	BYTE	W48
// 038   ----------------------------------------
	BYTE	W48
// 039   ----------------------------------------
	BYTE	W48
// 040   ----------------------------------------
	BYTE	W48
// 041   ----------------------------------------
	BYTE	W48
// 042   ----------------------------------------
	BYTE	W48
// 043   ----------------------------------------
	BYTE	W48
// 044   ----------------------------------------
	BYTE	W48
// 045   ----------------------------------------
	BYTE	W48
// 046   ----------------------------------------
	BYTE	W48
// 047   ----------------------------------------
	BYTE	W48
// 048   ----------------------------------------
	BYTE	W48
// 049   ----------------------------------------
	BYTE	W48
// 050   ----------------------------------------
	BYTE	W48
// 051   ----------------------------------------
	BYTE	W01
	BYTE	FINE

//**************** Track 2 (Midi-Chn.2) ****************//

FE4_Attack_2:
	BYTE	KEYSH   FE4_Attack_key+0
// 000   ----------------------------------------
	BYTE		VOICE   81
	BYTE		VOL     87*FE4_Attack_mvl/mxv
	BYTE	W01
	BYTE		PAN     c_v+0
	BYTE	W15
	BYTE		        c_v+49
	BYTE		N10     As3   v044
	BYTE	W18
	BYTE		N09     Cn4 
	BYTE	W18
	BYTE		N40     Cs4   v072
	BYTE	W44
FE4_Attack_2_B1:
// 001   ----------------------------------------
	BYTE	W96
// 002   ----------------------------------------
	BYTE	W96
// 003   ----------------------------------------
	BYTE	W96
// 004   ----------------------------------------
	BYTE	W96
// 005   ----------------------------------------
	BYTE	W48
// 006   ----------------------------------------
	BYTE	W48
// 007   ----------------------------------------
	BYTE	W48
// 008   ----------------------------------------
	BYTE	W48
// 009   ----------------------------------------
	BYTE	W48
// 010   ----------------------------------------
	BYTE	W48
// 011   ----------------------------------------
	BYTE	W48
// 012   ----------------------------------------
	BYTE	W48
// 013   ----------------------------------------
	BYTE	W48
// 014   ----------------------------------------
	BYTE	W48
	BYTE	GoTo
	 POIN2	FE4_Attack_2_B1
FE4_Attack_2_B2:
// 015   ----------------------------------------
	BYTE	W48
// 016   ----------------------------------------
	BYTE	W48
// 017   ----------------------------------------
	BYTE	W48
// 018   ----------------------------------------
	BYTE	W48
// 019   ----------------------------------------
	BYTE	W48
// 020   ----------------------------------------
	BYTE	W48
// 021   ----------------------------------------
	BYTE	W48
// 022   ----------------------------------------
	BYTE	W48
// 023   ----------------------------------------
	BYTE	W48
// 024   ----------------------------------------
	BYTE	W48
// 025   ----------------------------------------
	BYTE	W48
// 026   ----------------------------------------
	BYTE	W48
// 027   ----------------------------------------
	BYTE	W48
// 028   ----------------------------------------
	BYTE	W48
// 029   ----------------------------------------
	BYTE	W48
// 030   ----------------------------------------
	BYTE	W48
// 031   ----------------------------------------
	BYTE	W48
// 032   ----------------------------------------
	BYTE	W48
// 033   ----------------------------------------
	BYTE	W48
// 034   ----------------------------------------
	BYTE	W48
// 035   ----------------------------------------
	BYTE	W48
// 036   ----------------------------------------
	BYTE	W48
// 037   ----------------------------------------
	BYTE	W48
// 038   ----------------------------------------
	BYTE	W48
// 039   ----------------------------------------
	BYTE	W48
// 040   ----------------------------------------
	BYTE	W48
// 041   ----------------------------------------
	BYTE	W48
// 042   ----------------------------------------
	BYTE	W48
// 043   ----------------------------------------
	BYTE	W48
// 044   ----------------------------------------
	BYTE	W48
// 045   ----------------------------------------
	BYTE	W48
// 046   ----------------------------------------
	BYTE	W48
// 047   ----------------------------------------
	BYTE	W48
// 048   ----------------------------------------
	BYTE	W48
// 049   ----------------------------------------
	BYTE	W48
// 050   ----------------------------------------
	BYTE	W48
// 051   ----------------------------------------
	BYTE	W01
	BYTE	FINE

//**************** Track 3 (Midi-Chn.3) ****************//

FE4_Attack_3:
	BYTE	KEYSH   FE4_Attack_key+0
// 000   ----------------------------------------
	BYTE		VOICE   63
	BYTE		VOL     90*FE4_Attack_mvl/mxv
	BYTE	W01
	BYTE		PAN     c_v+0
	BYTE		N40     Gn1   v072
	BYTE	W48
	BYTE		N44     Gs1   v092
	BYTE	W44
	BYTE	W03
FE4_Attack_3_B1:
// 001   ----------------------------------------
	BYTE	W96
// 002   ----------------------------------------
	BYTE	W90
	BYTE		VOICE   63
	BYTE	W06
// 003   ----------------------------------------
	BYTE	W01
	BYTE		PAN     c_v-49
	BYTE	W24
	BYTE	W03
	BYTE		N02     Gn4   v076
	BYTE	W03
	BYTE		        Dn4 
	BYTE	W03
	BYTE		        Cn4 
	BYTE	W03
	BYTE		        Gn3 
	BYTE	W03
	BYTE		        Dn3   v084
	BYTE	W03
	BYTE		        Cn3 
	BYTE	W03
	BYTE		        Gn2   v080
	BYTE	W03
	BYTE		        Dn2   v076
	BYTE	W03
	BYTE		PAN     c_v+49
	BYTE	W24
	BYTE		N02     Gs4   v080
	BYTE	W03
	BYTE		        Ds4   v072
	BYTE	W03
	BYTE		        Cs4   v076
	BYTE	W03
	BYTE		        Gs3 
	BYTE	W03
	BYTE		        Ds4   v084
	BYTE	W03
	BYTE		        Cs4 
	BYTE	W03
	BYTE		        Gs3   v080
	BYTE	W02
// 004   ----------------------------------------
	BYTE	W01
	BYTE		        Ds3   v076
	BYTE	W03
	BYTE		PAN     c_v-34
	BYTE		N04     Cs3   v108
	BYTE	W06
	BYTE		        Cn3   v096
	BYTE	W06
	BYTE		        Ds3   v100
	BYTE	W06
	BYTE		        Cs3   v096
	BYTE	W06
	BYTE		PAN     c_v+34
	BYTE		N04     Cn3   v088
	BYTE	W06
	BYTE		        As2   v096
	BYTE	W06
	BYTE		        Gs2   v080
	BYTE	W06
	BYTE		        Fs2   v088
	BYTE	W06
	BYTE		PAN     c_v+0
	BYTE		        c_v-1
	BYTE		N01     Fn2   v084
	BYTE	W01
	BYTE		PAN     c_v-3
	BYTE	W01
	BYTE		        c_v-4
	BYTE	W01
	BYTE		        c_v-6
	BYTE		N01     Fs2   v060
	BYTE	W01
	BYTE		PAN     c_v-7
	BYTE	W01
	BYTE		        c_v-8
	BYTE	W01
	BYTE		        c_v-10
	BYTE		N01     Fn2   v072
	BYTE	W01
	BYTE		PAN     c_v-11
	BYTE	W01
	BYTE		        c_v-13
	BYTE	W01
	BYTE		        c_v-14
	BYTE		N01     Fs2   v060
	BYTE	W01
	BYTE		PAN     c_v-16
	BYTE	W01
	BYTE		        c_v-17
	BYTE	W01
	BYTE		        c_v-18
	BYTE		N01     Fn2   v076
	BYTE	W01
	BYTE		PAN     c_v-20
	BYTE	W01
	BYTE		        c_v-21
	BYTE	W01
	BYTE		        c_v-23
	BYTE		N01     Fs2   v064
	BYTE	W01
	BYTE		PAN     c_v-24
	BYTE	W01
	BYTE		        c_v-25
	BYTE	W01
	BYTE		        c_v-27
	BYTE		N01     Fn2   v076
	BYTE	W01
	BYTE		PAN     c_v-28
	BYTE	W01
	BYTE		        c_v-30
	BYTE	W01
	BYTE		        c_v-31
	BYTE		N01     Fs2   v060
	BYTE	W01
	BYTE		PAN     c_v-33
	BYTE	W01
	BYTE		        c_v-34
	BYTE	W01
	BYTE		        c_v+0
	BYTE		        c_v+1
	BYTE		N01     Fn2   v064
	BYTE	W01
	BYTE		PAN     c_v+3
	BYTE	W01
	BYTE		        c_v+4
	BYTE	W01
	BYTE		        c_v+6
	BYTE		N01     Fs2   v056
	BYTE	W01
	BYTE		PAN     c_v+7
	BYTE	W01
	BYTE		        c_v+9
	BYTE	W01
	BYTE		        c_v+10
	BYTE		N01     Fn2   v064
	BYTE	W01
	BYTE		PAN     c_v+11
	BYTE	W01
	BYTE		        c_v+13
	BYTE	W01
	BYTE		        c_v+14
	BYTE		N01     Fs2   v060
	BYTE	W01
	BYTE		PAN     c_v+16
	BYTE	W01
	BYTE		        c_v+17
	BYTE	W01
	BYTE		        c_v+18
	BYTE		N01     Fn2   v068
	BYTE	W01
	BYTE		PAN     c_v+20
	BYTE	W01
	BYTE		        c_v+21
	BYTE	W01
	BYTE		        c_v+23
	BYTE		N01     Fs2   v064
	BYTE	W01
	BYTE		PAN     c_v+24
	BYTE	W01
	BYTE		        c_v+26
	BYTE	W01
	BYTE		        c_v+27
	BYTE		N01     Fn2   v072
	BYTE	W01
	BYTE		PAN     c_v+28
	BYTE	W01
// 005   ----------------------------------------
	BYTE		        c_v+30
	BYTE	W01
	BYTE		        c_v+31
	BYTE		N01     Fs2   v076
	BYTE	W01
	BYTE		PAN     c_v+33
	BYTE	W01
	BYTE		        c_v+34
	BYTE	W44
	BYTE	W01
// 006   ----------------------------------------
	BYTE	W48
// 007   ----------------------------------------
	BYTE	W48
// 008   ----------------------------------------
	BYTE	W48
// 009   ----------------------------------------
	BYTE	W48
// 010   ----------------------------------------
	BYTE	W48
// 011   ----------------------------------------
	BYTE	W48
// 012   ----------------------------------------
	BYTE	W48
// 013   ----------------------------------------
	BYTE	W48
// 014   ----------------------------------------
	BYTE	W48
	BYTE	GoTo
	 POIN2	FE4_Attack_3_B1
FE4_Attack_3_B2:
// 015   ----------------------------------------
	BYTE	W48
// 016   ----------------------------------------
	BYTE	W48
// 017   ----------------------------------------
	BYTE	W48
// 018   ----------------------------------------
	BYTE	W48
// 019   ----------------------------------------
	BYTE	W02
	BYTE		VOICE   0
	BYTE		PAN     c_v-49
	BYTE	W24
	BYTE	W02
	BYTE		N02     Gn4   v076
	BYTE	W03
	BYTE		        Dn4 
	BYTE	W03
	BYTE		        Cn4 
	BYTE	W03
	BYTE		        Gn3 
	BYTE	W03
	BYTE		        Dn3   v084
	BYTE	W03
	BYTE		        Cn3 
	BYTE	W03
	BYTE		        Gn2   v080
	BYTE	W02
// 020   ----------------------------------------
	BYTE	W01
	BYTE		        Dn2   v076
	BYTE	W03
	BYTE		PAN     c_v+49
	BYTE	W24
	BYTE		N02     Gs4   v080
	BYTE	W03
	BYTE		        Ds4   v072
	BYTE	W03
	BYTE		        Cs4   v076
	BYTE	W03
	BYTE		        Gs3 
	BYTE	W03
	BYTE		        Ds4   v084
	BYTE	W03
	BYTE		        Cs4 
	BYTE	W03
	BYTE		        Gs3   v080
	BYTE	W02
// 021   ----------------------------------------
	BYTE	W01
	BYTE		        Ds3   v076
	BYTE	W03
	BYTE		PAN     c_v-34
	BYTE		N04     Cs3   v108
	BYTE	W06
	BYTE		        Cn3   v096
	BYTE	W06
	BYTE		        Ds3   v100
	BYTE	W06
	BYTE		        Cs3   v096
	BYTE	W06
	BYTE		PAN     c_v+34
	BYTE		N04     Cn3   v088
	BYTE	W06
	BYTE		        As2   v096
	BYTE	W06
	BYTE		        Gs2   v080
	BYTE	W06
	BYTE		        Fs2   v088
	BYTE	W02
// 022   ----------------------------------------
	BYTE	W04
	BYTE		PAN     c_v+0
	BYTE		        c_v-1
	BYTE		N01     Fn2   v084
	BYTE	W01
	BYTE		PAN     c_v-2
	BYTE	W01
	BYTE		        c_v-4
	BYTE	W01
	BYTE		        c_v-5
	BYTE		N01     Fs2   v060
	BYTE	W01
	BYTE		PAN     c_v-6
	BYTE	W01
	BYTE		        c_v-8
	BYTE	W01
	BYTE		        c_v-9
	BYTE		N01     Fn2   v072
	BYTE	W01
	BYTE		PAN     c_v-11
	BYTE	W01
	BYTE		        c_v-12
	BYTE	W01
	BYTE		        c_v-13
	BYTE		N01     Fs2   v060
	BYTE	W01
	BYTE		PAN     c_v-15
	BYTE	W01
	BYTE		        c_v-16
	BYTE	W01
	BYTE		        c_v-18
	BYTE		N01     Fn2   v076
	BYTE	W01
	BYTE		PAN     c_v-19
	BYTE	W01
	BYTE		        c_v-21
	BYTE	W01
	BYTE		        c_v-22
	BYTE		N01     Fs2   v064
	BYTE	W01
	BYTE		PAN     c_v-23
	BYTE	W01
	BYTE		        c_v-25
	BYTE	W01
	BYTE		        c_v-26
	BYTE		N01     Fn2   v076
	BYTE	W01
	BYTE		PAN     c_v-28
	BYTE	W01
	BYTE		        c_v-29
	BYTE	W01
	BYTE		        c_v-30
	BYTE		N01     Fs2   v060
	BYTE	W01
	BYTE		PAN     c_v-32
	BYTE	W01
	BYTE		        c_v-33
	BYTE	W01
	BYTE		        c_v+0
	BYTE		        c_v+1
	BYTE		N01     Fn2   v064
	BYTE	W01
	BYTE		PAN     c_v+2
	BYTE	W01
	BYTE		        c_v+4
	BYTE	W01
	BYTE		        c_v+5
	BYTE		N01     Fs2   v056
	BYTE	W01
	BYTE		PAN     c_v+6
	BYTE	W01
	BYTE		        c_v+8
	BYTE	W01
	BYTE		        c_v+9
	BYTE		N01     Fn2   v064
	BYTE	W01
	BYTE		PAN     c_v+11
	BYTE	W01
	BYTE		        c_v+12
	BYTE	W01
	BYTE		        c_v+13
	BYTE		N01     Fs2   v060
	BYTE	W01
	BYTE		PAN     c_v+15
	BYTE	W01
	BYTE		        c_v+16
	BYTE	W01
	BYTE		        c_v+18
	BYTE		N01     Fn2   v068
	BYTE	W01
	BYTE		PAN     c_v+19
	BYTE	W01
	BYTE		        c_v+21
	BYTE	W01
	BYTE		        c_v+22
	BYTE		N01     Fs2   v064
	BYTE	W01
	BYTE		PAN     c_v+23
	BYTE	W01
	BYTE		        c_v+25
	BYTE	W01
	BYTE		        c_v+26
	BYTE		N01     Fn2   v072
	BYTE	W01
	BYTE		PAN     c_v+28
	BYTE	W01
// 023   ----------------------------------------
	BYTE		        c_v+29
	BYTE	W01
	BYTE		        c_v+30
	BYTE		N01     Fs2   v076
	BYTE	W01
	BYTE		PAN     c_v+32
	BYTE	W01
	BYTE		        c_v+33
	BYTE	W01
	BYTE		        c_v+34
	BYTE	W44
// 024   ----------------------------------------
	BYTE	W48
// 025   ----------------------------------------
	BYTE	W48
// 026   ----------------------------------------
	BYTE	W48
// 027   ----------------------------------------
	BYTE	W48
// 028   ----------------------------------------
	BYTE	W48
// 029   ----------------------------------------
	BYTE	W48
// 030   ----------------------------------------
	BYTE	W48
// 031   ----------------------------------------
	BYTE	W48
// 032   ----------------------------------------
	BYTE	W48
// 033   ----------------------------------------
	BYTE	W48
// 034   ----------------------------------------
	BYTE	W48
// 035   ----------------------------------------
	BYTE	W48
// 036   ----------------------------------------
	BYTE	W48
// 037   ----------------------------------------
	BYTE	W02
	BYTE		VOICE   0
	BYTE		PAN     c_v-49
	BYTE	W24
	BYTE	W03
	BYTE		N02     Gn4 
	BYTE	W03
	BYTE		        Dn4 
	BYTE	W03
	BYTE		        Cn4 
	BYTE	W03
	BYTE		        Gn3 
	BYTE	W03
	BYTE		        Dn3   v084
	BYTE	W03
	BYTE		        Cn3 
	BYTE	W03
	BYTE		        Gn2   v080
	BYTE	W01
// 038   ----------------------------------------
	BYTE	W02
	BYTE		        Dn2   v076
	BYTE	W03
	BYTE		PAN     c_v+49
	BYTE	W24
	BYTE		N02     Gs4   v080
	BYTE	W03
	BYTE		        Ds4   v072
	BYTE	W03
	BYTE		        Cs4   v076
	BYTE	W03
	BYTE		        Gs3 
	BYTE	W03
	BYTE		        Ds4   v084
	BYTE	W03
	BYTE		        Cs4 
	BYTE	W03
	BYTE		        Gs3   v080
	BYTE	W01
// 039   ----------------------------------------
	BYTE	W02
	BYTE		        Ds3   v076
	BYTE	W03
	BYTE		PAN     c_v-34
	BYTE		N04     Cs3   v108
	BYTE	W06
	BYTE		        Cn3   v096
	BYTE	W06
	BYTE		        Ds3   v100
	BYTE	W06
	BYTE		        Cs3   v096
	BYTE	W06
	BYTE		PAN     c_v+34
	BYTE		N04     Cn3   v088
	BYTE	W06
	BYTE		        As2   v096
	BYTE	W06
	BYTE		        Gs2   v080
	BYTE	W06
	BYTE		        Fs2   v088
	BYTE	W01
// 040   ----------------------------------------
	BYTE	W05
	BYTE		PAN     c_v+0
	BYTE		        c_v-1
	BYTE		N01     Fn2   v084
	BYTE	W01
	BYTE		PAN     c_v-3
	BYTE	W01
	BYTE		        c_v-4
	BYTE	W01
	BYTE		        c_v-6
	BYTE		N01     Fs2   v060
	BYTE	W01
	BYTE		PAN     c_v-7
	BYTE	W01
	BYTE		        c_v-8
	BYTE	W01
	BYTE		        c_v-10
	BYTE		N01     Fn2   v072
	BYTE	W01
	BYTE		PAN     c_v-11
	BYTE	W01
	BYTE		        c_v-13
	BYTE	W01
	BYTE		        c_v-14
	BYTE		N01     Fs2   v060
	BYTE	W01
	BYTE		PAN     c_v-16
	BYTE	W01
	BYTE		        c_v-17
	BYTE	W01
	BYTE		        c_v-18
	BYTE		N01     Fn2   v076
	BYTE	W01
	BYTE		PAN     c_v-20
	BYTE	W01
	BYTE		        c_v-21
	BYTE	W01
	BYTE		        c_v-23
	BYTE		N01     Fs2   v064
	BYTE	W01
	BYTE		PAN     c_v-24
	BYTE	W01
	BYTE		        c_v-25
	BYTE	W01
	BYTE		        c_v-27
	BYTE		N01     Fn2   v076
	BYTE	W01
	BYTE		PAN     c_v-28
	BYTE	W01
	BYTE		        c_v-30
	BYTE	W01
	BYTE		        c_v-31
	BYTE		N01     Fs2   v060
	BYTE	W01
	BYTE		PAN     c_v-33
	BYTE	W01
	BYTE		        c_v-34
	BYTE	W01
	BYTE		        c_v+0
	BYTE		        c_v+1
	BYTE		N01     Fn2   v064
	BYTE	W01
	BYTE		PAN     c_v+3
	BYTE	W01
	BYTE		        c_v+4
	BYTE	W01
	BYTE		        c_v+6
	BYTE		N01     Fs2   v056
	BYTE	W01
	BYTE		PAN     c_v+7
	BYTE	W01
	BYTE		        c_v+9
	BYTE	W01
	BYTE		        c_v+10
	BYTE		N01     Fn2   v064
	BYTE	W01
	BYTE		PAN     c_v+11
	BYTE	W01
	BYTE		        c_v+13
	BYTE	W01
	BYTE		        c_v+14
	BYTE		N01     Fs2   v060
	BYTE	W01
	BYTE		PAN     c_v+16
	BYTE	W01
	BYTE		        c_v+17
	BYTE	W01
	BYTE		        c_v+18
	BYTE		N01     Fn2   v068
	BYTE	W01
	BYTE		PAN     c_v+20
	BYTE	W01
	BYTE		        c_v+21
	BYTE	W01
	BYTE		        c_v+23
	BYTE		N01     Fs2   v064
	BYTE	W01
	BYTE		PAN     c_v+24
	BYTE	W01
	BYTE		        c_v+26
	BYTE	W01
	BYTE		        c_v+27
	BYTE		N01     Fn2   v072
	BYTE	W01
// 041   ----------------------------------------
	BYTE		PAN     c_v+28
	BYTE	W01
	BYTE		        c_v+30
	BYTE	W01
	BYTE		        c_v+31
	BYTE		N01     Fs2   v076
	BYTE	W01
	BYTE		PAN     c_v+33
	BYTE	W01
	BYTE		        c_v+34
	BYTE	W44
// 042   ----------------------------------------
	BYTE	W48
// 043   ----------------------------------------
	BYTE	W48
// 044   ----------------------------------------
	BYTE	W48
// 045   ----------------------------------------
	BYTE	W48
// 046   ----------------------------------------
	BYTE	W48
// 047   ----------------------------------------
	BYTE	W48
// 048   ----------------------------------------
	BYTE	W48
// 049   ----------------------------------------
	BYTE	W48
// 050   ----------------------------------------
	BYTE	W48
// 051   ----------------------------------------
	BYTE	W01
	BYTE	FINE

//**************** Track 4 (Midi-Chn.4) ****************//

FE4_Attack_4:
	BYTE	KEYSH   FE4_Attack_key+0
// 000   ----------------------------------------
	BYTE		VOICE   1
	BYTE		VOL     91*FE4_Attack_mvl/mxv
	BYTE	W01
	BYTE		PAN     c_v+0
	BYTE		N44     Gn2   v092
	BYTE	W48
	BYTE		        Gs2   v096
	BYTE	W44
	BYTE	W03
FE4_Attack_4_B1:
// 001   ----------------------------------------
	BYTE	W01
	BYTE		N03     Gn4   v072
	BYTE	W18
	BYTE		        Gs4   v060
	BYTE	W18
	BYTE		N02     Fn4   v052
	BYTE	W18
	BYTE		        Gn4   v064
	BYTE	W18
	BYTE		        Ds4   v056
	BYTE	W12
	BYTE		        Fn4   v060
	BYTE	W11
// 002   ----------------------------------------
	BYTE	W01
	BYTE		        Cn4   v084
	BYTE	W18
	BYTE		        Ds4   v064
	BYTE	W18
	BYTE		        An3 
	BYTE	W18
	BYTE		N03     As3   v072
	BYTE	W18
	BYTE		N02     Dn4   v056
	BYTE	W12
	BYTE		N03     Ds4   v064
	BYTE	W11
// 003   ----------------------------------------
	BYTE	W01
	BYTE		VOICE   1
	BYTE		PAN     c_v+0
	BYTE		N24     Gs2   v084
	BYTE	W30
	BYTE		N03     Gs2   v092
	BYTE	W06
	BYTE		N02     Gs2   v076
	BYTE	W06
	BYTE		N02   
	BYTE	W06
	BYTE		N23     An2   v092
	BYTE	W30
	BYTE		N03     An2   v072
	BYTE	W06
	BYTE		N02     An2   v076
	BYTE	W06
	BYTE		N03     An2   v092
	BYTE	W05
// 004   ----------------------------------------
	BYTE	W01
	BYTE		N05     As2   v072
	BYTE	W06
	BYTE		        Cn3   v064
	BYTE	W06
	BYTE		        Cs3   v060
	BYTE	W06
	BYTE		        Ds3 
	BYTE	W06
	BYTE		N22     Fn3   v072
	BYTE	W24
	BYTE		        Fs3   v060
	BYTE	W24
	BYTE		        Gn3   v052
	BYTE	W23
// 005   ----------------------------------------
	BYTE	W01
	BYTE	W44
	BYTE	W03
// 006   ----------------------------------------
	BYTE	W48
// 007   ----------------------------------------
	BYTE	W48
// 008   ----------------------------------------
	BYTE	W48
// 009   ----------------------------------------
	BYTE	W48
// 010   ----------------------------------------
	BYTE	W48
// 011   ----------------------------------------
	BYTE	W48
// 012   ----------------------------------------
	BYTE	W48
// 013   ----------------------------------------
	BYTE	W48
// 014   ----------------------------------------
	BYTE	W48
	BYTE	GoTo
	 POIN2	FE4_Attack_4_B1
FE4_Attack_4_B2:
// 015   ----------------------------------------
FE4_Attack_4_015:
	BYTE	W02
	BYTE		N03     Gn3   v072
	BYTE	W18
	BYTE		        Gs3   v060
	BYTE	W18
	BYTE		N02     Fn3   v052
	BYTE	W10
	BYTE	PEND
// 016   ----------------------------------------
FE4_Attack_4_016:
	BYTE	W08
	BYTE		N02     Gn3   v064
	BYTE	W18
	BYTE		        Ds3   v056
	BYTE	W12
	BYTE		        Fn3   v060
	BYTE	W10
	BYTE	PEND
// 017   ----------------------------------------
FE4_Attack_4_017:
	BYTE	W02
	BYTE		N02     Cn3   v084
	BYTE	W18
	BYTE		        Ds3   v064
	BYTE	W18
	BYTE		        An2 
	BYTE	W10
	BYTE	PEND
// 018   ----------------------------------------
FE4_Attack_4_018:
	BYTE	W08
	BYTE		N03     As2   v072
	BYTE	W18
	BYTE		N02     Dn3   v056
	BYTE	W12
	BYTE		N03     Ds3   v064
	BYTE	W10
	BYTE	PEND
// 019   ----------------------------------------
FE4_Attack_4_019:
	BYTE	W02
	BYTE		VOICE   1
	BYTE		PAN     c_v+0
	BYTE		N24     Gs2   v084
	BYTE	W30
	BYTE		N03     Gs2   v092
	BYTE	W06
	BYTE		N02     Gs2   v076
	BYTE	W06
	BYTE		N02   
	BYTE	W04
	BYTE	PEND
// 020   ----------------------------------------
FE4_Attack_4_020:
	BYTE	W02
	BYTE		N23     An2   v092
	BYTE	W30
	BYTE		N03     An2   v072
	BYTE	W06
	BYTE		N02     An2   v076
	BYTE	W06
	BYTE		N03     An2   v092
	BYTE	W04
	BYTE	PEND
// 021   ----------------------------------------
FE4_Attack_4_021:
	BYTE	W02
	BYTE		N05     As2   v072
	BYTE	W06
	BYTE		        Cn3   v064
	BYTE	W06
	BYTE		        Cs3   v060
	BYTE	W06
	BYTE		        Ds3 
	BYTE	W06
	BYTE		N22     Fn3   v072
	BYTE	W22
	BYTE	PEND
// 022   ----------------------------------------
FE4_Attack_4_022:
	BYTE	W02
	BYTE		N22     Fs3   v060
	BYTE	W24
	BYTE		        Gn3   v052
	BYTE	W22
	BYTE	PEND
// 023   ----------------------------------------
FE4_Attack_4_023:
	BYTE	W02
	BYTE	W44
	BYTE	W02
	BYTE	PEND
// 024   ----------------------------------------
	BYTE	W48
// 025   ----------------------------------------
	BYTE	W48
// 026   ----------------------------------------
	BYTE	W48
// 027   ----------------------------------------
	BYTE	W48
// 028   ----------------------------------------
	BYTE	W48
// 029   ----------------------------------------
	BYTE	W48
// 030   ----------------------------------------
	BYTE	W48
// 031   ----------------------------------------
	BYTE	W48
// 032   ----------------------------------------
	BYTE	W48
// 033   ----------------------------------------
	BYTE	PATT
	 POIN2	FE4_Attack_4_015
// 034   ----------------------------------------
	BYTE	PATT
	 POIN2	FE4_Attack_4_016
// 035   ----------------------------------------
	BYTE	PATT
	 POIN2	FE4_Attack_4_017
// 036   ----------------------------------------
	BYTE	PATT
	 POIN2	FE4_Attack_4_018
// 037   ----------------------------------------
	BYTE	PATT
	 POIN2	FE4_Attack_4_019
// 038   ----------------------------------------
	BYTE	PATT
	 POIN2	FE4_Attack_4_020
// 039   ----------------------------------------
	BYTE	PATT
	 POIN2	FE4_Attack_4_021
// 040   ----------------------------------------
	BYTE	PATT
	 POIN2	FE4_Attack_4_022
// 041   ----------------------------------------
	BYTE	PATT
	 POIN2	FE4_Attack_4_023
// 042   ----------------------------------------
	BYTE	W48
// 043   ----------------------------------------
	BYTE	W48
// 044   ----------------------------------------
	BYTE	W48
// 045   ----------------------------------------
	BYTE	W48
// 046   ----------------------------------------
	BYTE	W48
// 047   ----------------------------------------
	BYTE	W48
// 048   ----------------------------------------
	BYTE	W48
// 049   ----------------------------------------
	BYTE	W48
// 050   ----------------------------------------
	BYTE	W48
// 051   ----------------------------------------
	BYTE	W01
	BYTE	FINE

//**************** Track 5 (Midi-Chn.5) ****************//

FE4_Attack_5:
	BYTE	KEYSH   FE4_Attack_key+0
// 000   ----------------------------------------
	BYTE		VOICE   51
	BYTE		VOL     93*FE4_Attack_mvl/mxv
	BYTE	W01
	BYTE		PAN     c_v-14
	BYTE	W12
	BYTE		N10     As3   v076
	BYTE	W18
	BYTE		N09     Cn4   v072
	BYTE	W18
	BYTE		N40     Cs4   v108
	BYTE	W44
	BYTE	W03
FE4_Attack_5_B1:
// 001   ----------------------------------------
	BYTE	W07
	BYTE		N03     Gn1   v076
	BYTE	W06
	BYTE		        Gn1   v064
	BYTE	W12
	BYTE		        Gn1   v068
	BYTE	W06
	BYTE		        Gn1   v080
	BYTE	W12
	BYTE		        Gn1   v076
	BYTE	W06
	BYTE		        Gn1   v084
	BYTE	W12
	BYTE		        Gn1   v076
	BYTE	W06
	BYTE		        Gn1   v080
	BYTE	W12
	BYTE		N03   
	BYTE	W12
	BYTE		N02   
	BYTE	W05
// 002   ----------------------------------------
	BYTE	W07
	BYTE		N03     Gn1   v076
	BYTE	W06
	BYTE		        Gn1   v084
	BYTE	W12
	BYTE		        Gn1   v096
	BYTE	W06
	BYTE		        Gn1   v088
	BYTE	W12
	BYTE		        Gn1   v092
	BYTE	W06
	BYTE		        Gn1   v072
	BYTE	W12
	BYTE		        Gn1   v064
	BYTE	W06
	BYTE		        Gn1   v072
	BYTE	W12
	BYTE		        Gn1   v080
	BYTE	W12
	BYTE		        Gn1   v084
	BYTE	W05
// 003   ----------------------------------------
	BYTE	W01
	BYTE		PAN     c_v+0
	BYTE		N02     Gn3   v092
	BYTE	W03
	BYTE		        Fn3   v072
	BYTE	W03
	BYTE		        Cn4   v084
	BYTE	W03
	BYTE		N24     Cn4   v096
	BYTE	W36
	BYTE	W03
	BYTE		N02     Cn4   v076
	BYTE	W03
	BYTE		        As3 
	BYTE	W03
	BYTE		        Cs4   v084
	BYTE	W03
	BYTE		N24     Cs4   v096
	BYTE	W36
	BYTE	W02
// 004   ----------------------------------------
	BYTE	W01
	BYTE		N05     Cs4   v060
	BYTE	W06
	BYTE		        Cn4 
	BYTE	W06
	BYTE		        Ds4 
	BYTE	W06
	BYTE		        Cs4   v064
	BYTE	W06
	BYTE		        Cn4   v056
	BYTE	W06
	BYTE		        As3 
	BYTE	W06
	BYTE		        Gs3   v072
	BYTE	W06
	BYTE		        Fs3   v064
	BYTE	W06
	BYTE		        Fn3 
	BYTE	W06
	BYTE		        Ds3 
	BYTE	W06
	BYTE		        Fs3   v060
	BYTE	W06
	BYTE		        As3   v064
	BYTE	W06
	BYTE		        Cs4   v072
	BYTE	W06
	BYTE		        Cn4   v060
	BYTE	W06
	BYTE		        Ds4 
	BYTE	W06
	BYTE		        Cs4 
	BYTE	W05
// 005   ----------------------------------------
	BYTE	W13
	BYTE		VOICE   19
	BYTE		PAN     c_v+14
	BYTE		N03     Fn3   v084
	BYTE	W18
	BYTE		        Fs3   v092
	BYTE	W17
// 006   ----------------------------------------
	BYTE	W01
	BYTE		        Fn3   v084
	BYTE	W24
	BYTE		N02     Gs3 
	BYTE	W06
	BYTE		N11     Fs3   v096
	BYTE	W17
// 007   ----------------------------------------
	BYTE	W02
	BYTE		N44     As3   v064
	BYTE	W44
	BYTE	W02
// 008   ----------------------------------------
	BYTE	W02
	BYTE		        Cn4 
	BYTE	W44
	BYTE	W02
// 009   ----------------------------------------
	BYTE	W02
	BYTE		        Cs4 
	BYTE	W44
	BYTE	W02
// 010   ----------------------------------------
	BYTE	W02
	BYTE		        Ds4 
	BYTE	W44
	BYTE	W02
// 011   ----------------------------------------
	BYTE		VOICE   51
	BYTE	W01
	BYTE		N03     Dn4   v072
	BYTE	W06
	BYTE		N04     Dn4   v080
	BYTE	W08
	BYTE		PAN     c_v+25
	BYTE		N03     Dn4   v044
	BYTE	W07
	BYTE		PAN     c_v-34
	BYTE		N03   
	BYTE	W08
	BYTE		PAN     c_v+43
	BYTE		N02   
	BYTE	W07
	BYTE		PAN     c_v-49
	BYTE		N02   
	BYTE	W11
// 012   ----------------------------------------
	BYTE	W01
	BYTE		PAN     c_v+14
	BYTE		N02     Dn4   v072
	BYTE	W06
	BYTE		N04     Dn4   v080
	BYTE	W08
	BYTE		PAN     c_v-25
	BYTE		N03     Dn4   v044
	BYTE	W07
	BYTE		PAN     c_v+34
	BYTE		N03   
	BYTE	W08
	BYTE		PAN     c_v-43
	BYTE		N02   
	BYTE	W07
	BYTE		PAN     c_v+49
	BYTE		N02   
	BYTE	W11
// 013   ----------------------------------------
	BYTE	W01
	BYTE		PAN     c_v-14
	BYTE		N02     Dn4   v068
	BYTE	W06
	BYTE		N04     Dn4   v080
	BYTE	W08
	BYTE		PAN     c_v+25
	BYTE		N03     Dn4   v044
	BYTE	W07
	BYTE		PAN     c_v-34
	BYTE		N03   
	BYTE	W08
	BYTE		PAN     c_v+43
	BYTE		N02   
	BYTE	W07
	BYTE		PAN     c_v-49
	BYTE		N02   
	BYTE	W11
// 014   ----------------------------------------
	BYTE	W01
	BYTE		PAN     c_v+25
	BYTE		N19     Gn3   v080
	BYTE	W24
	BYTE		PAN     c_v+14
	BYTE		N14     Fs3   v072
	BYTE	W23
	BYTE	GoTo
	 POIN2	FE4_Attack_5_B1
FE4_Attack_5_B2:
// 015   ----------------------------------------
FE4_Attack_5_015:
	BYTE	W08
	BYTE		N03     Gn1   v076
	BYTE	W06
	BYTE		        Gn1   v064
	BYTE	W12
	BYTE		        Gn1   v068
	BYTE	W06
	BYTE		        Gn1   v080
	BYTE	W12
	BYTE		        Gn1   v076
	BYTE	W04
	BYTE	PEND
// 016   ----------------------------------------
FE4_Attack_5_016:
	BYTE	W02
	BYTE		N03     Gn1   v084
	BYTE	W12
	BYTE		        Gn1   v076
	BYTE	W06
	BYTE		        Gn1   v080
	BYTE	W12
	BYTE		N03   
	BYTE	W12
	BYTE		N02   
	BYTE	W04
	BYTE	PEND
// 017   ----------------------------------------
FE4_Attack_5_017:
	BYTE	W08
	BYTE		N03     Gn1   v076
	BYTE	W06
	BYTE		        Gn1   v084
	BYTE	W12
	BYTE		        Gn1   v096
	BYTE	W06
	BYTE		        Gn1   v088
	BYTE	W12
	BYTE		        Gn1   v092
	BYTE	W04
	BYTE	PEND
// 018   ----------------------------------------
FE4_Attack_5_018:
	BYTE	W02
	BYTE		N03     Gn1   v072
	BYTE	W12
	BYTE		        Gn1   v064
	BYTE	W06
	BYTE		        Gn1   v072
	BYTE	W12
	BYTE		        Gn1   v080
	BYTE	W12
	BYTE		        Gn1   v084
	BYTE	W04
	BYTE	PEND
// 019   ----------------------------------------
FE4_Attack_5_019:
	BYTE	W02
	BYTE		PAN     c_v+0
	BYTE		N02     Gn3   v092
	BYTE	W03
	BYTE		        Fn3   v072
	BYTE	W03
	BYTE		        Cn4   v084
	BYTE	W03
	BYTE		N24     Cn4   v096
	BYTE	W36
	BYTE	W01
	BYTE	PEND
// 020   ----------------------------------------
FE4_Attack_5_020:
	BYTE	W02
	BYTE		N02     Cn4   v076
	BYTE	W03
	BYTE		        As3 
	BYTE	W03
	BYTE		        Cs4   v084
	BYTE	W03
	BYTE		N24     Cs4   v096
	BYTE	W36
	BYTE	W01
	BYTE	PEND
// 021   ----------------------------------------
FE4_Attack_5_021:
	BYTE	W02
	BYTE		N05     Cs4   v060
	BYTE	W06
	BYTE		        Cn4 
	BYTE	W06
	BYTE		        Ds4 
	BYTE	W06
	BYTE		        Cs4   v064
	BYTE	W06
	BYTE		        Cn4   v056
	BYTE	W06
	BYTE		        As3 
	BYTE	W06
	BYTE		        Gs3   v072
	BYTE	W06
	BYTE		        Fs3   v064
	BYTE	W04
	BYTE	PEND
// 022   ----------------------------------------
FE4_Attack_5_022:
	BYTE	W02
	BYTE		N05     Fn3   v064
	BYTE	W06
	BYTE		        Ds3 
	BYTE	W06
	BYTE		        Fs3   v060
	BYTE	W06
	BYTE		        As3   v064
	BYTE	W06
	BYTE		        Cs4   v072
	BYTE	W06
	BYTE		        Cn4   v060
	BYTE	W06
	BYTE		        Ds4 
	BYTE	W06
	BYTE		        Cs4 
	BYTE	W04
	BYTE	PEND
// 023   ----------------------------------------
FE4_Attack_5_023:
	BYTE	W14
	BYTE		VOICE   2
	BYTE		PAN     c_v+14
	BYTE		N03     Fn3   v084
	BYTE	W18
	BYTE		        Fs3   v092
	BYTE	W16
	BYTE	PEND
// 024   ----------------------------------------
FE4_Attack_5_024:
	BYTE	W02
	BYTE		N03     Fn3   v084
	BYTE	W24
	BYTE		N02     Gs3 
	BYTE	W06
	BYTE		N11     Fs3   v096
	BYTE	W16
	BYTE	PEND
// 025   ----------------------------------------
FE4_Attack_5_025:
	BYTE	W03
	BYTE		N44     As3   v064
	BYTE	W44
	BYTE	W01
	BYTE	PEND
// 026   ----------------------------------------
FE4_Attack_5_026:
	BYTE	W03
	BYTE		N44     Cn4   v064
	BYTE	W44
	BYTE	W01
	BYTE	PEND
// 027   ----------------------------------------
FE4_Attack_5_027:
	BYTE	W03
	BYTE		N44     Cs4   v064
	BYTE	W44
	BYTE	W01
	BYTE	PEND
// 028   ----------------------------------------
FE4_Attack_5_028:
	BYTE	W03
	BYTE		N44     Ds4   v064
	BYTE	W44
	BYTE	W01
	BYTE	PEND
// 029   ----------------------------------------
	BYTE	W02
	BYTE		N03     Dn4   v072
	BYTE	W06
	BYTE		N04     Dn4   v080
	BYTE	W07
	BYTE		PAN     c_v+25
	BYTE		N03     Dn4   v044
	BYTE	W08
	BYTE		PAN     c_v-34
	BYTE		N03   
	BYTE	W07
	BYTE		PAN     c_v+43
	BYTE		N02   
	BYTE	W08
	BYTE		PAN     c_v-49
	BYTE		N02   
	BYTE	W10
// 030   ----------------------------------------
	BYTE	W02
	BYTE		PAN     c_v+14
	BYTE		N02     Dn4   v072
	BYTE	W06
	BYTE		N04     Dn4   v080
	BYTE	W07
	BYTE		PAN     c_v-25
	BYTE		N03     Dn4   v044
	BYTE	W08
	BYTE		PAN     c_v+34
	BYTE		N03   
	BYTE	W07
	BYTE		PAN     c_v-43
	BYTE		N02   
	BYTE	W08
	BYTE		PAN     c_v+49
	BYTE		N02   
	BYTE	W10
// 031   ----------------------------------------
	BYTE	W02
	BYTE		PAN     c_v-14
	BYTE		N02     Dn4   v068
	BYTE	W06
	BYTE		N04     Dn4   v080
	BYTE	W07
	BYTE		PAN     c_v+25
	BYTE		N03     Dn4   v044
	BYTE	W08
	BYTE		PAN     c_v-34
	BYTE		N03   
	BYTE	W07
	BYTE		PAN     c_v+43
	BYTE		N02   
	BYTE	W08
	BYTE		PAN     c_v-49
	BYTE		N02   
	BYTE	W10
// 032   ----------------------------------------
FE4_Attack_5_032:
	BYTE	W02
	BYTE		PAN     c_v+25
	BYTE		N19     Gn3   v080
	BYTE	W24
	BYTE		PAN     c_v+14
	BYTE		N14     Fs3   v072
	BYTE	W22
	BYTE	PEND
// 033   ----------------------------------------
	BYTE	PATT
	 POIN2	FE4_Attack_5_015
// 034   ----------------------------------------
	BYTE	PATT
	 POIN2	FE4_Attack_5_016
// 035   ----------------------------------------
	BYTE	PATT
	 POIN2	FE4_Attack_5_017
// 036   ----------------------------------------
	BYTE	PATT
	 POIN2	FE4_Attack_5_018
// 037   ----------------------------------------
	BYTE	PATT
	 POIN2	FE4_Attack_5_019
// 038   ----------------------------------------
	BYTE	PATT
	 POIN2	FE4_Attack_5_020
// 039   ----------------------------------------
	BYTE	PATT
	 POIN2	FE4_Attack_5_021
// 040   ----------------------------------------
	BYTE	PATT
	 POIN2	FE4_Attack_5_022
// 041   ----------------------------------------
	BYTE	PATT
	 POIN2	FE4_Attack_5_023
// 042   ----------------------------------------
	BYTE	PATT
	 POIN2	FE4_Attack_5_024
// 043   ----------------------------------------
	BYTE	PATT
	 POIN2	FE4_Attack_5_025
// 044   ----------------------------------------
	BYTE	PATT
	 POIN2	FE4_Attack_5_026
// 045   ----------------------------------------
	BYTE	PATT
	 POIN2	FE4_Attack_5_027
// 046   ----------------------------------------
	BYTE	PATT
	 POIN2	FE4_Attack_5_028
// 047   ----------------------------------------
	BYTE	W02
	BYTE		N03     Dn4   v072
	BYTE	W06
	BYTE		N04     Dn4   v080
	BYTE	W08
	BYTE		PAN     c_v+25
	BYTE		N03     Dn4   v044
	BYTE	W07
	BYTE		PAN     c_v-34
	BYTE		N03   
	BYTE	W08
	BYTE		PAN     c_v+43
	BYTE		N02   
	BYTE	W07
	BYTE		PAN     c_v-49
	BYTE		N02   
	BYTE	W10
// 048   ----------------------------------------
	BYTE	W02
	BYTE		PAN     c_v+14
	BYTE		N02     Dn4   v072
	BYTE	W06
	BYTE		N04     Dn4   v080
	BYTE	W08
	BYTE		PAN     c_v-25
	BYTE		N03     Dn4   v044
	BYTE	W07
	BYTE		PAN     c_v+34
	BYTE		N03   
	BYTE	W08
	BYTE		PAN     c_v-43
	BYTE		N02   
	BYTE	W07
	BYTE		PAN     c_v+49
	BYTE		N02   
	BYTE	W10
// 049   ----------------------------------------
	BYTE	W02
	BYTE		PAN     c_v-14
	BYTE		N02     Dn4   v068
	BYTE	W06
	BYTE		N04     Dn4   v080
	BYTE	W08
	BYTE		PAN     c_v+25
	BYTE		N03     Dn4   v044
	BYTE	W07
	BYTE		PAN     c_v-34
	BYTE		N03   
	BYTE	W08
	BYTE		PAN     c_v+43
	BYTE		N02   
	BYTE	W07
	BYTE		PAN     c_v-49
	BYTE		N02   
	BYTE	W10
// 050   ----------------------------------------
	BYTE	PATT
	 POIN2	FE4_Attack_5_032
// 051   ----------------------------------------
	BYTE	W01
	BYTE	FINE

//**************** Track 6 (Midi-Chn.6) ****************//

FE4_Attack_6:
	BYTE	KEYSH   FE4_Attack_key+0
// 000   ----------------------------------------
	BYTE		VOICE   92
	BYTE		VOL     84*FE4_Attack_mvl/mxv
	BYTE	W01
	BYTE		PAN     c_v+14
	BYTE	W12
	BYTE		N10     Dn3   v072
	BYTE	W18
	BYTE		N09     Ds3   v064
	BYTE	W18
	BYTE		N40     En3   v096
	BYTE	W44
	BYTE	W03
FE4_Attack_6_B1:
// 001   ----------------------------------------
	BYTE	W01
	BYTE		N03     As3   v060
	BYTE	W06
	BYTE		PAN     c_v+0
	BYTE		N02     Gn1   v072
	BYTE	W06
	BYTE		        Gn1   v060
	BYTE	W06
	BYTE		PAN     c_v+0
	BYTE		N03     Cn4   v064
	BYTE	W06
	BYTE		PAN     c_v+0
	BYTE		N02     Gn1 
	BYTE	W06
	BYTE		        Gn1   v072
	BYTE	W06
	BYTE		PAN     c_v+0
	BYTE		N02     An3   v052
	BYTE	W06
	BYTE		PAN     c_v+0
	BYTE		N02     Gn1   v072
	BYTE	W06
	BYTE		N02   
	BYTE	W06
	BYTE		PAN     c_v+0
	BYTE		N02     As3   v056
	BYTE	W06
	BYTE		PAN     c_v+0
	BYTE		N02     Gn1   v072
	BYTE	W06
	BYTE		N02   
	BYTE	W06
	BYTE		PAN     c_v+0
	BYTE		N02     Gn3   v064
	BYTE	W06
	BYTE		PAN     c_v+0
	BYTE		N02     Gn1   v072
	BYTE	W06
	BYTE		PAN     c_v+0
	BYTE		N02     An3 
	BYTE	W06
	BYTE		PAN     c_v+0
	BYTE		N02     Gn1 
	BYTE	W05
// 002   ----------------------------------------
	BYTE	W01
	BYTE		PAN     c_v+0
	BYTE		N02     Fn3 
	BYTE	W06
	BYTE		PAN     c_v+0
	BYTE		N02     Gn1 
	BYTE	W06
	BYTE		N02   
	BYTE	W06
	BYTE		PAN     c_v+0
	BYTE		N02     Gn3 
	BYTE	W06
	BYTE		PAN     c_v+0
	BYTE		N02     Gn1   v092
	BYTE	W06
	BYTE		        Gn1   v072
	BYTE	W06
	BYTE		PAN     c_v+0
	BYTE		N02     Dn3 
	BYTE	W06
	BYTE		PAN     c_v+0
	BYTE		N02     Gn1   v092
	BYTE	W06
	BYTE		        Gn1   v064
	BYTE	W06
	BYTE		PAN     c_v+0
	BYTE		N03     Ds3 
	BYTE	W06
	BYTE		PAN     c_v+0
	BYTE		N02     Gn1 
	BYTE	W06
	BYTE		N02   
	BYTE	W06
	BYTE		PAN     c_v+0
	BYTE		N02     Fn3 
	BYTE	W06
	BYTE		PAN     c_v+0
	BYTE		N02     Gn1   v072
	BYTE	W06
	BYTE		PAN     c_v+0
	BYTE		N03     Gn3 
	BYTE	W06
	BYTE		PAN     c_v+0
	BYTE		N02     Gn1 
	BYTE	W05
// 003   ----------------------------------------
	BYTE	W01
	BYTE		VOICE   63
	BYTE		PAN     c_v-14
	BYTE	W24
	BYTE		N02     Gn4   v076
	BYTE	W03
	BYTE		        Dn4 
	BYTE	W03
	BYTE		        Cn4 
	BYTE	W03
	BYTE		        Gn3 
	BYTE	W03
	BYTE		        Dn3   v084
	BYTE	W03
	BYTE		        Cn3 
	BYTE	W03
	BYTE		        Gn2   v080
	BYTE	W03
	BYTE		        Dn2   v076
	BYTE	W03
	BYTE		PAN     c_v+14
	BYTE	W24
	BYTE		N02     Gs4   v080
	BYTE	W03
	BYTE		        Ds4   v072
	BYTE	W03
	BYTE		        Cs4   v076
	BYTE	W03
	BYTE		        Gs3 
	BYTE	W03
	BYTE		        Ds4   v084
	BYTE	W03
	BYTE		        Cs4 
	BYTE	W03
	BYTE		        Gs3   v080
	BYTE	W03
	BYTE		        Ds3   v076
	BYTE	W02
// 004   ----------------------------------------
	BYTE	W01
	BYTE		PAN     c_v+0
	BYTE		N04     Cs3   v108
	BYTE	W06
	BYTE		        Cn3   v096
	BYTE	W06
	BYTE		        Ds3   v100
	BYTE	W06
	BYTE		        Cs3   v096
	BYTE	W06
	BYTE		        Cn3   v088
	BYTE	W06
	BYTE		        As2   v096
	BYTE	W06
	BYTE		        Gs2   v080
	BYTE	W06
	BYTE		        Fs2   v088
	BYTE	W06
	BYTE		PAN     c_v-14
	BYTE		        c_v-15
	BYTE		N01     Fn2   v084
	BYTE	W01
	BYTE		PAN     c_v-16
	BYTE	W01
	BYTE		        c_v-17
	BYTE	W01
	BYTE		        c_v-18
	BYTE		N01     Fs2   v060
	BYTE	W01
	BYTE		PAN     c_v-19
	BYTE	W01
	BYTE		        c_v-21
	BYTE	W01
	BYTE		        c_v-22
	BYTE		N01     Fn2   v072
	BYTE	W01
	BYTE		PAN     c_v-23
	BYTE	W01
	BYTE		        c_v-24
	BYTE	W01
	BYTE		        c_v-25
	BYTE		N01     Fs2   v060
	BYTE	W01
	BYTE		PAN     c_v-27
	BYTE	W01
	BYTE		        c_v-28
	BYTE	W01
	BYTE		        c_v-29
	BYTE		N01     Fn2   v076
	BYTE	W01
	BYTE		PAN     c_v-30
	BYTE	W01
	BYTE		        c_v-32
	BYTE	W01
	BYTE		        c_v-33
	BYTE		N01     Fs2   v064
	BYTE	W01
	BYTE		PAN     c_v-34
	BYTE	W01
	BYTE		        c_v-35
	BYTE	W01
	BYTE		        c_v-36
	BYTE		N01     Fn2   v076
	BYTE	W01
	BYTE		PAN     c_v-38
	BYTE	W01
	BYTE		        c_v-39
	BYTE	W01
	BYTE		        c_v-40
	BYTE		N01     Fs2   v060
	BYTE	W01
	BYTE		PAN     c_v-41
	BYTE	W01
	BYTE		        c_v-42
	BYTE	W01
	BYTE		        c_v+14
	BYTE		        c_v+15
	BYTE		N01     Fn2   v064
	BYTE	W01
	BYTE		PAN     c_v+16
	BYTE	W01
	BYTE		        c_v+17
	BYTE	W01
	BYTE		        c_v+18
	BYTE		N01     Fs2   v056
	BYTE	W01
	BYTE		PAN     c_v+19
	BYTE	W01
	BYTE		        c_v+21
	BYTE	W01
	BYTE		        c_v+22
	BYTE		N01     Fn2   v064
	BYTE	W01
	BYTE		PAN     c_v+23
	BYTE	W01
	BYTE		        c_v+24
	BYTE	W01
	BYTE		        c_v+25
	BYTE		N01     Fs2   v060
	BYTE	W01
	BYTE		PAN     c_v+27
	BYTE	W01
	BYTE		        c_v+28
	BYTE	W01
	BYTE		        c_v+29
	BYTE		N01     Fn2   v068
	BYTE	W01
	BYTE		PAN     c_v+30
	BYTE	W01
	BYTE		        c_v+32
	BYTE	W01
	BYTE		        c_v+33
	BYTE		N01     Fs2   v064
	BYTE	W01
	BYTE		PAN     c_v+34
	BYTE	W01
	BYTE		        c_v+35
	BYTE	W01
	BYTE		        c_v+36
	BYTE		N01     Fn2   v072
	BYTE	W01
	BYTE		PAN     c_v+38
	BYTE	W01
	BYTE		        c_v+39
	BYTE	W01
	BYTE		        c_v+40
	BYTE		N01     Fs2   v076
	BYTE	W01
	BYTE		PAN     c_v+41
	BYTE	W01
// 005   ----------------------------------------
	BYTE		        c_v+42
	BYTE	W01
	BYTE		VOICE   63
	BYTE		PAN     c_v+43
	BYTE		        c_v+0
	BYTE		N09     Cn4   v064
	BYTE	W05
	BYTE		VOICE   19
	BYTE	W07
	BYTE		        19
	BYTE		PAN     c_v-14
	BYTE		N03     Cn3   v084
	BYTE	W18
	BYTE		        Cs3   v076
	BYTE	W17
// 006   ----------------------------------------
	BYTE	W01
	BYTE		        Cn3 
	BYTE	W24
	BYTE		N02     Ds3   v084
	BYTE	W06
	BYTE		N11     Cs3   v092
	BYTE	W17
// 007   ----------------------------------------
	BYTE	W01
	BYTE		VOICE   19
	BYTE		PAN     c_v+0
	BYTE	W01
	BYTE		N44     Cs3   v064
	BYTE	W44
	BYTE	W02
// 008   ----------------------------------------
FE4_Attack_6_008:
	BYTE	W02
	BYTE		N44     Ds3   v064
	BYTE	W44
	BYTE	W02
	BYTE	PEND
// 009   ----------------------------------------
FE4_Attack_6_009:
	BYTE	W02
	BYTE		N44     Fn3   v064
	BYTE	W44
	BYTE	W02
	BYTE	PEND
// 010   ----------------------------------------
FE4_Attack_6_010:
	BYTE	W02
	BYTE		N44     An3   v072
	BYTE	W44
	BYTE	W02
	BYTE	PEND
// 011   ----------------------------------------
	BYTE		VOICE   92
	BYTE	W01
	BYTE		N03     As3   v064
	BYTE	W06
	BYTE		N04     As3   v072
	BYTE	W08
	BYTE		PAN     c_v+25
	BYTE		N03     As3   v040
	BYTE	W07
	BYTE		PAN     c_v-34
	BYTE		N03   
	BYTE	W08
	BYTE		PAN     c_v+43
	BYTE		N02   
	BYTE	W07
	BYTE		PAN     c_v-49
	BYTE		N02   
	BYTE	W11
// 012   ----------------------------------------
	BYTE	W01
	BYTE		PAN     c_v+14
	BYTE		N02     Fs3   v076
	BYTE	W06
	BYTE		N04     Fs3   v080
	BYTE	W08
	BYTE		PAN     c_v-25
	BYTE		N03     Fs3   v044
	BYTE	W07
	BYTE		PAN     c_v+34
	BYTE		N03   
	BYTE	W08
	BYTE		PAN     c_v-43
	BYTE		N02   
	BYTE	W07
	BYTE		PAN     c_v+49
	BYTE		N02   
	BYTE	W11
// 013   ----------------------------------------
	BYTE	W01
	BYTE		PAN     c_v-14
	BYTE		N02     Gn3   v072
	BYTE	W06
	BYTE		N04     Gn3   v084
	BYTE	W08
	BYTE		PAN     c_v+25
	BYTE		N03     Gn3   v044
	BYTE	W07
	BYTE		PAN     c_v-34
	BYTE		N03   
	BYTE	W08
	BYTE		PAN     c_v+43
	BYTE		N02   
	BYTE	W07
	BYTE		PAN     c_v-49
	BYTE		N02   
	BYTE	W11
// 014   ----------------------------------------
	BYTE	W01
	BYTE		PAN     c_v+14
	BYTE		N19     Cn3   v072
	BYTE	W24
	BYTE		PAN     c_v-14
	BYTE		N14     Cn3   v064
	BYTE	W23
	BYTE	GoTo
	 POIN2	FE4_Attack_6_B1
FE4_Attack_6_B2:
// 015   ----------------------------------------
FE4_Attack_6_015:
	BYTE	W02
	BYTE		N03     As3   v060
	BYTE	W06
	BYTE		PAN     c_v+0
	BYTE		N02     Gn1   v072
	BYTE	W06
	BYTE		        Gn1   v060
	BYTE	W06
	BYTE		PAN     c_v+0
	BYTE		N03     Cn4   v064
	BYTE	W06
	BYTE		PAN     c_v+0
	BYTE		N02     Gn1 
	BYTE	W06
	BYTE		        Gn1   v072
	BYTE	W06
	BYTE		PAN     c_v+0
	BYTE		N02     An3   v052
	BYTE	W06
	BYTE		PAN     c_v+0
	BYTE		N02     Gn1   v072
	BYTE	W04
	BYTE	PEND
// 016   ----------------------------------------
FE4_Attack_6_016:
	BYTE	W02
	BYTE		N02     Gn1   v072
	BYTE	W06
	BYTE		PAN     c_v+0
	BYTE		N02     As3   v056
	BYTE	W06
	BYTE		PAN     c_v+0
	BYTE		N02     Gn1   v072
	BYTE	W06
	BYTE		N02   
	BYTE	W06
	BYTE		PAN     c_v+0
	BYTE		N02     Gn3   v064
	BYTE	W06
	BYTE		PAN     c_v+0
	BYTE		N02     Gn1   v072
	BYTE	W06
	BYTE		PAN     c_v+0
	BYTE		N02     An3 
	BYTE	W06
	BYTE		PAN     c_v+0
	BYTE		N02     Gn1 
	BYTE	W04
	BYTE	PEND
// 017   ----------------------------------------
FE4_Attack_6_017:
	BYTE	W02
	BYTE		PAN     c_v+0
	BYTE		N02     Fn3   v072
	BYTE	W06
	BYTE		PAN     c_v+0
	BYTE		N02     Gn1 
	BYTE	W06
	BYTE		N02   
	BYTE	W06
	BYTE		PAN     c_v+0
	BYTE		N02     Gn3 
	BYTE	W06
	BYTE		PAN     c_v+0
	BYTE		N02     Gn1   v092
	BYTE	W06
	BYTE		        Gn1   v072
	BYTE	W06
	BYTE		PAN     c_v+0
	BYTE		N02     Dn3 
	BYTE	W06
	BYTE		PAN     c_v+0
	BYTE		N02     Gn1   v092
	BYTE	W04
	BYTE	PEND
// 018   ----------------------------------------
FE4_Attack_6_018:
	BYTE	W02
	BYTE		N02     Gn1   v064
	BYTE	W06
	BYTE		PAN     c_v+0
	BYTE		N03     Ds3 
	BYTE	W06
	BYTE		PAN     c_v+0
	BYTE		N02     Gn1 
	BYTE	W06
	BYTE		N02   
	BYTE	W06
	BYTE		PAN     c_v+0
	BYTE		N02     Fn3 
	BYTE	W06
	BYTE		PAN     c_v+0
	BYTE		N02     Gn1   v072
	BYTE	W06
	BYTE		PAN     c_v+0
	BYTE		N03     Gn3 
	BYTE	W06
	BYTE		PAN     c_v+0
	BYTE		N02     Gn1 
	BYTE	W04
	BYTE	PEND
// 019   ----------------------------------------
FE4_Attack_6_019:
	BYTE	W02
	BYTE		VOICE   0
	BYTE		PAN     c_v-14
	BYTE	W24
	BYTE		N02     Gn4   v076
	BYTE	W03
	BYTE		        Dn4 
	BYTE	W03
	BYTE		        Cn4 
	BYTE	W03
	BYTE		        Gn3 
	BYTE	W03
	BYTE		        Dn3   v084
	BYTE	W03
	BYTE		        Cn3 
	BYTE	W03
	BYTE		        Gn2   v080
	BYTE	W03
	BYTE		        Dn2   v076
	BYTE	W01
	BYTE	PEND
// 020   ----------------------------------------
FE4_Attack_6_020:
	BYTE	W02
	BYTE		PAN     c_v+14
	BYTE	W24
	BYTE		N02     Gs4   v080
	BYTE	W03
	BYTE		        Ds4   v072
	BYTE	W03
	BYTE		        Cs4   v076
	BYTE	W03
	BYTE		        Gs3 
	BYTE	W03
	BYTE		        Ds4   v084
	BYTE	W03
	BYTE		        Cs4 
	BYTE	W03
	BYTE		        Gs3   v080
	BYTE	W03
	BYTE		        Ds3   v076
	BYTE	W01
	BYTE	PEND
// 021   ----------------------------------------
FE4_Attack_6_021:
	BYTE	W02
	BYTE		PAN     c_v+0
	BYTE		N04     Cs3   v108
	BYTE	W06
	BYTE		        Cn3   v096
	BYTE	W06
	BYTE		        Ds3   v100
	BYTE	W06
	BYTE		        Cs3   v096
	BYTE	W06
	BYTE		        Cn3   v088
	BYTE	W06
	BYTE		        As2   v096
	BYTE	W06
	BYTE		        Gs2   v080
	BYTE	W06
	BYTE		        Fs2   v088
	BYTE	W04
	BYTE	PEND
// 022   ----------------------------------------
	BYTE	W02
	BYTE		PAN     c_v-14
	BYTE		        c_v-15
	BYTE		N01     Fn2   v084
	BYTE	W01
	BYTE		PAN     c_v-16
	BYTE	W01
	BYTE		        c_v-18
	BYTE	W01
	BYTE		        c_v-19
	BYTE		N01     Fs2   v060
	BYTE	W01
	BYTE		PAN     c_v-20
	BYTE	W01
	BYTE		        c_v-21
	BYTE	W01
	BYTE		        c_v-22
	BYTE		N01     Fn2   v072
	BYTE	W01
	BYTE		PAN     c_v-24
	BYTE	W01
	BYTE		        c_v-25
	BYTE	W01
	BYTE		        c_v-26
	BYTE		N01     Fs2   v060
	BYTE	W01
	BYTE		PAN     c_v-27
	BYTE	W01
	BYTE		        c_v-28
	BYTE	W01
	BYTE		        c_v-30
	BYTE		N01     Fn2   v076
	BYTE	W01
	BYTE		PAN     c_v-31
	BYTE	W01
	BYTE		        c_v-32
	BYTE	W01
	BYTE		        c_v-33
	BYTE		N01     Fs2   v064
	BYTE	W01
	BYTE		PAN     c_v-35
	BYTE	W01
	BYTE		        c_v-36
	BYTE	W01
	BYTE		        c_v-37
	BYTE		N01     Fn2   v076
	BYTE	W01
	BYTE		PAN     c_v-38
	BYTE	W01
	BYTE		        c_v-39
	BYTE	W01
	BYTE		        c_v-41
	BYTE		N01     Fs2   v060
	BYTE	W01
	BYTE		PAN     c_v-42
	BYTE	W01
	BYTE		        c_v-43
	BYTE	W01
	BYTE		        c_v+14
	BYTE		        c_v+15
	BYTE		N01     Fn2   v064
	BYTE	W01
	BYTE		PAN     c_v+16
	BYTE	W01
	BYTE		        c_v+18
	BYTE	W01
	BYTE		        c_v+19
	BYTE		N01     Fs2   v056
	BYTE	W01
	BYTE		PAN     c_v+20
	BYTE	W01
	BYTE		        c_v+21
	BYTE	W01
	BYTE		        c_v+22
	BYTE		N01     Fn2   v064
	BYTE	W01
	BYTE		PAN     c_v+24
	BYTE	W01
	BYTE		        c_v+25
	BYTE	W01
	BYTE		        c_v+26
	BYTE		N01     Fs2   v060
	BYTE	W01
	BYTE		PAN     c_v+27
	BYTE	W01
	BYTE		        c_v+29
	BYTE	W01
	BYTE		        c_v+30
	BYTE		N01     Fn2   v068
	BYTE	W01
	BYTE		PAN     c_v+31
	BYTE	W01
	BYTE		        c_v+32
	BYTE	W01
	BYTE		        c_v+33
	BYTE		N01     Fs2   v064
	BYTE	W01
	BYTE		PAN     c_v+35
	BYTE	W01
	BYTE		        c_v+36
	BYTE	W01
	BYTE		        c_v+37
	BYTE		N01     Fn2   v072
	BYTE	W01
	BYTE		PAN     c_v+38
	BYTE	W01
	BYTE		        c_v+39
	BYTE	W01
	BYTE		        c_v+41
	BYTE		N01     Fs2   v076
	BYTE	W01
// 023   ----------------------------------------
	BYTE		PAN     c_v+42
	BYTE	W01
	BYTE		        c_v+43
	BYTE	W01
	BYTE		VOICE   0
	BYTE		PAN     c_v+0
	BYTE		N09     Cn4   v064
	BYTE	W12
	BYTE		VOICE   2
	BYTE		PAN     c_v-14
	BYTE		N03     Cn3   v084
	BYTE	W18
	BYTE		        Cs3   v076
	BYTE	W16
// 024   ----------------------------------------
FE4_Attack_6_024:
	BYTE	W02
	BYTE		N03     Cn3   v076
	BYTE	W24
	BYTE		N02     Ds3   v084
	BYTE	W06
	BYTE		N11     Cs3   v092
	BYTE	W16
	BYTE	PEND
// 025   ----------------------------------------
	BYTE	W02
	BYTE		VOICE   2
	BYTE		PAN     c_v+0
	BYTE		N44     Cs3   v064
	BYTE	W44
	BYTE	W02
// 026   ----------------------------------------
	BYTE	PATT
	 POIN2	FE4_Attack_6_008
// 027   ----------------------------------------
	BYTE	PATT
	 POIN2	FE4_Attack_6_009
// 028   ----------------------------------------
	BYTE	PATT
	 POIN2	FE4_Attack_6_010
// 029   ----------------------------------------
	BYTE	W02
	BYTE		N03     As3   v064
	BYTE	W06
	BYTE		N04     As3   v072
	BYTE	W07
	BYTE		PAN     c_v+25
	BYTE		N03     As3   v040
	BYTE	W08
	BYTE		PAN     c_v-34
	BYTE		N03   
	BYTE	W07
	BYTE		PAN     c_v+43
	BYTE		N02   
	BYTE	W08
	BYTE		PAN     c_v-49
	BYTE		N02   
	BYTE	W10
// 030   ----------------------------------------
	BYTE	W02
	BYTE		PAN     c_v+14
	BYTE		N02     Fs3   v076
	BYTE	W06
	BYTE		N04     Fs3   v080
	BYTE	W07
	BYTE		PAN     c_v-25
	BYTE		N03     Fs3   v044
	BYTE	W08
	BYTE		PAN     c_v+34
	BYTE		N03   
	BYTE	W07
	BYTE		PAN     c_v-43
	BYTE		N02   
	BYTE	W08
	BYTE		PAN     c_v+49
	BYTE		N02   
	BYTE	W10
// 031   ----------------------------------------
	BYTE	W02
	BYTE		PAN     c_v-14
	BYTE		N02     Gn3   v072
	BYTE	W06
	BYTE		N04     Gn3   v084
	BYTE	W07
	BYTE		PAN     c_v+25
	BYTE		N03     Gn3   v044
	BYTE	W08
	BYTE		PAN     c_v-34
	BYTE		N03   
	BYTE	W07
	BYTE		PAN     c_v+43
	BYTE		N02   
	BYTE	W08
	BYTE		PAN     c_v-49
	BYTE		N02   
	BYTE	W10
// 032   ----------------------------------------
FE4_Attack_6_032:
	BYTE	W02
	BYTE		PAN     c_v+14
	BYTE		N19     Cn3   v072
	BYTE	W24
	BYTE		PAN     c_v-14
	BYTE		N14     Cn3   v064
	BYTE	W22
	BYTE	PEND
// 033   ----------------------------------------
	BYTE	PATT
	 POIN2	FE4_Attack_6_015
// 034   ----------------------------------------
	BYTE	PATT
	 POIN2	FE4_Attack_6_016
// 035   ----------------------------------------
	BYTE	PATT
	 POIN2	FE4_Attack_6_017
// 036   ----------------------------------------
	BYTE	PATT
	 POIN2	FE4_Attack_6_018
// 037   ----------------------------------------
	BYTE	PATT
	 POIN2	FE4_Attack_6_019
// 038   ----------------------------------------
	BYTE	PATT
	 POIN2	FE4_Attack_6_020
// 039   ----------------------------------------
	BYTE	PATT
	 POIN2	FE4_Attack_6_021
// 040   ----------------------------------------
	BYTE	W02
	BYTE		PAN     c_v-14
	BYTE		        c_v-15
	BYTE		N01     Fn2   v084
	BYTE	W01
	BYTE		PAN     c_v-16
	BYTE	W01
	BYTE		        c_v-17
	BYTE	W01
	BYTE		        c_v-18
	BYTE		N01     Fs2   v060
	BYTE	W01
	BYTE		PAN     c_v-19
	BYTE	W01
	BYTE		        c_v-21
	BYTE	W01
	BYTE		        c_v-22
	BYTE		N01     Fn2   v072
	BYTE	W01
	BYTE		PAN     c_v-23
	BYTE	W01
	BYTE		        c_v-24
	BYTE	W01
	BYTE		        c_v-25
	BYTE		N01     Fs2   v060
	BYTE	W01
	BYTE		PAN     c_v-27
	BYTE	W01
	BYTE		        c_v-28
	BYTE	W01
	BYTE		        c_v-29
	BYTE		N01     Fn2   v076
	BYTE	W01
	BYTE		PAN     c_v-30
	BYTE	W01
	BYTE		        c_v-32
	BYTE	W01
	BYTE		        c_v-33
	BYTE		N01     Fs2   v064
	BYTE	W01
	BYTE		PAN     c_v-34
	BYTE	W01
	BYTE		        c_v-35
	BYTE	W01
	BYTE		        c_v-36
	BYTE		N01     Fn2   v076
	BYTE	W01
	BYTE		PAN     c_v-38
	BYTE	W01
	BYTE		        c_v-39
	BYTE	W01
	BYTE		        c_v-40
	BYTE		N01     Fs2   v060
	BYTE	W01
	BYTE		PAN     c_v-41
	BYTE	W01
	BYTE		        c_v-42
	BYTE	W01
	BYTE		        c_v+14
	BYTE		        c_v+15
	BYTE		N01     Fn2   v064
	BYTE	W01
	BYTE		PAN     c_v+16
	BYTE	W01
	BYTE		        c_v+17
	BYTE	W01
	BYTE		        c_v+18
	BYTE		N01     Fs2   v056
	BYTE	W01
	BYTE		PAN     c_v+19
	BYTE	W01
	BYTE		        c_v+21
	BYTE	W01
	BYTE		        c_v+22
	BYTE		N01     Fn2   v064
	BYTE	W01
	BYTE		PAN     c_v+23
	BYTE	W01
	BYTE		        c_v+24
	BYTE	W01
	BYTE		        c_v+25
	BYTE		N01     Fs2   v060
	BYTE	W01
	BYTE		PAN     c_v+27
	BYTE	W01
	BYTE		        c_v+28
	BYTE	W01
	BYTE		        c_v+29
	BYTE		N01     Fn2   v068
	BYTE	W01
	BYTE		PAN     c_v+30
	BYTE	W01
	BYTE		        c_v+32
	BYTE	W01
	BYTE		        c_v+33
	BYTE		N01     Fs2   v064
	BYTE	W01
	BYTE		PAN     c_v+34
	BYTE	W01
	BYTE		        c_v+35
	BYTE	W01
	BYTE		        c_v+36
	BYTE		N01     Fn2   v072
	BYTE	W01
	BYTE		PAN     c_v+38
	BYTE	W01
	BYTE		        c_v+39
	BYTE	W01
	BYTE		        c_v+40
	BYTE		N01     Fs2   v076
	BYTE	W01
// 041   ----------------------------------------
	BYTE		PAN     c_v+41
	BYTE	W01
	BYTE		        c_v+42
	BYTE	W01
	BYTE		VOICE   0
	BYTE		PAN     c_v+43
	BYTE		        c_v+0
	BYTE		N09     Cn4   v064
	BYTE	W12
	BYTE		VOICE   2
	BYTE		PAN     c_v-14
	BYTE		N03     Cn3   v084
	BYTE	W18
	BYTE		        Cs3   v076
	BYTE	W16
// 042   ----------------------------------------
	BYTE	PATT
	 POIN2	FE4_Attack_6_024
// 043   ----------------------------------------
	BYTE	W02
	BYTE		VOICE   2
	BYTE		PAN     c_v+0
	BYTE	W01
	BYTE		N44     Cs3   v064
	BYTE	W44
	BYTE	W01
// 044   ----------------------------------------
	BYTE	W03
	BYTE		        Ds3 
	BYTE	W44
	BYTE	W01
// 045   ----------------------------------------
	BYTE	W03
	BYTE		        Fn3 
	BYTE	W44
	BYTE	W01
// 046   ----------------------------------------
	BYTE	W03
	BYTE		        An3   v072
	BYTE	W44
	BYTE	W01
// 047   ----------------------------------------
	BYTE	W02
	BYTE		N03     As3   v064
	BYTE	W06
	BYTE		N04     As3   v072
	BYTE	W08
	BYTE		PAN     c_v+25
	BYTE		N03     As3   v040
	BYTE	W07
	BYTE		PAN     c_v-34
	BYTE		N03   
	BYTE	W08
	BYTE		PAN     c_v+43
	BYTE		N02   
	BYTE	W07
	BYTE		PAN     c_v-49
	BYTE		N02   
	BYTE	W10
// 048   ----------------------------------------
	BYTE	W02
	BYTE		PAN     c_v+14
	BYTE		N02     Fs3   v076
	BYTE	W06
	BYTE		N04     Fs3   v080
	BYTE	W08
	BYTE		PAN     c_v-25
	BYTE		N03     Fs3   v044
	BYTE	W07
	BYTE		PAN     c_v+34
	BYTE		N03   
	BYTE	W08
	BYTE		PAN     c_v-43
	BYTE		N02   
	BYTE	W07
	BYTE		PAN     c_v+49
	BYTE		N02   
	BYTE	W10
// 049   ----------------------------------------
	BYTE	W02
	BYTE		PAN     c_v-14
	BYTE		N02     Gn3   v072
	BYTE	W06
	BYTE		N04     Gn3   v084
	BYTE	W08
	BYTE		PAN     c_v+25
	BYTE		N03     Gn3   v044
	BYTE	W07
	BYTE		PAN     c_v-34
	BYTE		N03   
	BYTE	W08
	BYTE		PAN     c_v+43
	BYTE		N02   
	BYTE	W07
	BYTE		PAN     c_v-49
	BYTE		N02   
	BYTE	W10
// 050   ----------------------------------------
	BYTE	PATT
	 POIN2	FE4_Attack_6_032
// 051   ----------------------------------------
	BYTE	W01
	BYTE	FINE

//**************** Track 7 (Midi-Chn.7) ****************//

FE4_Attack_7:
	BYTE	KEYSH   FE4_Attack_key+0
// 000   ----------------------------------------
	BYTE		VOICE   31
	BYTE		VOL     85*FE4_Attack_mvl/mxv
	BYTE	W01
	BYTE		PAN     c_v+0
	BYTE		N40     Gn2   v076
	BYTE	W48
	BYTE		N42     Gs2   v084
	BYTE	W44
	BYTE	W03
FE4_Attack_7_B1:
// 001   ----------------------------------------
	BYTE	W01
	BYTE		N03     Dn3   v056
	BYTE	W18
	BYTE		        Ds3   v072
	BYTE	W18
	BYTE		N02     Cn3   v064
	BYTE	W18
	BYTE		        Dn3 
	BYTE	W18
	BYTE		        As2 
	BYTE	W12
	BYTE		        Cn3   v072
	BYTE	W11
// 002   ----------------------------------------
	BYTE	W01
	BYTE		        An2 
	BYTE	W18
	BYTE		        As2   v064
	BYTE	W18
	BYTE		        Fn2   v060
	BYTE	W18
	BYTE		N03     Gn2   v064
	BYTE	W18
	BYTE		N02     An2 
	BYTE	W12
	BYTE		N03     As2   v084
	BYTE	W11
// 003   ----------------------------------------
	BYTE	W01
	BYTE		N23     Gs1 
	BYTE	W30
	BYTE		N02     Gs1   v092
	BYTE	W06
	BYTE		        Gs1   v084
	BYTE	W06
	BYTE		        Gs1   v096
	BYTE	W06
	BYTE		N23     An1   v092
	BYTE	W30
	BYTE		N02     An1   v064
	BYTE	W06
	BYTE		        An1   v084
	BYTE	W06
	BYTE		        An1   v092
	BYTE	W05
// 004   ----------------------------------------
	BYTE	W01
	BYTE		N05     As1   v064
	BYTE	W06
	BYTE		        Cn2 
	BYTE	W06
	BYTE		        Cs2   v060
	BYTE	W06
	BYTE		        Ds2   v056
	BYTE	W06
	BYTE		N23     Fn2   v060
	BYTE	W24
	BYTE		N22     Fs2   v052
	BYTE	W24
	BYTE		N23     Gn2   v056
	BYTE	W23
// 005   ----------------------------------------
	BYTE	W48
// 006   ----------------------------------------
	BYTE	W48
// 007   ----------------------------------------
	BYTE	W01
	BYTE		VOICE   19
	BYTE		PAN     c_v-14
	BYTE		N44     Fs2   v064
	BYTE	W44
	BYTE	W03
// 008   ----------------------------------------
FE4_Attack_7_008:
	BYTE	W01
	BYTE		N44     Gs2   v064
	BYTE	W44
	BYTE	W03
	BYTE	PEND
// 009   ----------------------------------------
	BYTE	PATT
	 POIN2	FE4_Attack_7_008
// 010   ----------------------------------------
	BYTE	W01
	BYTE		N44     Cn3   v060
	BYTE	W44
	BYTE	W03
// 011   ----------------------------------------
	BYTE		VOICE   31
	BYTE	W01
	BYTE		N03     Gn2   v076
	BYTE	W06
	BYTE		N04   
	BYTE	W08
	BYTE		PAN     c_v+25
	BYTE		N03     Gn2   v040
	BYTE	W07
	BYTE		PAN     c_v-34
	BYTE		N03   
	BYTE	W08
	BYTE		PAN     c_v+43
	BYTE		N02   
	BYTE	W07
	BYTE		PAN     c_v-49
	BYTE		N02   
	BYTE	W11
// 012   ----------------------------------------
	BYTE	W01
	BYTE		PAN     c_v+14
	BYTE		N02     An2   v068
	BYTE	W06
	BYTE		N04     An2   v072
	BYTE	W08
	BYTE		PAN     c_v-25
	BYTE		N03     An2   v032
	BYTE	W07
	BYTE		PAN     c_v+34
	BYTE		N03   
	BYTE	W08
	BYTE		PAN     c_v-43
	BYTE		N02   
	BYTE	W07
	BYTE		PAN     c_v+49
	BYTE		N02   
	BYTE	W11
// 013   ----------------------------------------
	BYTE	W01
	BYTE		PAN     c_v-14
	BYTE		N02     As2   v060
	BYTE	W06
	BYTE		N04     As2   v064
	BYTE	W08
	BYTE		PAN     c_v+25
	BYTE		N03     As2   v032
	BYTE	W07
	BYTE		PAN     c_v-34
	BYTE		N03   
	BYTE	W08
	BYTE		PAN     c_v+43
	BYTE		N02   
	BYTE	W07
	BYTE		PAN     c_v-49
	BYTE		N02   
	BYTE	W11
// 014   ----------------------------------------
	BYTE	W01
	BYTE		PAN     c_v-14
	BYTE		N22     An2   v092
	BYTE	W24
	BYTE		PAN     c_v-25
	BYTE		N14     Dn2 
	BYTE	W23
	BYTE	GoTo
	 POIN2	FE4_Attack_7_B1
FE4_Attack_7_B2:
// 015   ----------------------------------------
FE4_Attack_7_015:
	BYTE	W02
	BYTE		N03     Dn3   v056
	BYTE	W18
	BYTE		        Ds3   v072
	BYTE	W18
	BYTE		N02     Cn3   v064
	BYTE	W10
	BYTE	PEND
// 016   ----------------------------------------
FE4_Attack_7_016:
	BYTE	W08
	BYTE		N02     Dn3   v064
	BYTE	W18
	BYTE		        As2 
	BYTE	W12
	BYTE		        Cn3   v072
	BYTE	W10
	BYTE	PEND
// 017   ----------------------------------------
FE4_Attack_7_017:
	BYTE	W02
	BYTE		N02     An2   v072
	BYTE	W18
	BYTE		        As2   v064
	BYTE	W18
	BYTE		        Fn2   v060
	BYTE	W10
	BYTE	PEND
// 018   ----------------------------------------
FE4_Attack_7_018:
	BYTE	W08
	BYTE		N03     Gn2   v064
	BYTE	W18
	BYTE		N02     An2 
	BYTE	W12
	BYTE		N03     As2   v084
	BYTE	W10
	BYTE	PEND
// 019   ----------------------------------------
FE4_Attack_7_019:
	BYTE	W02
	BYTE		N23     Gs1   v084
	BYTE	W30
	BYTE		N02     Gs1   v092
	BYTE	W06
	BYTE		        Gs1   v084
	BYTE	W06
	BYTE		        Gs1   v096
	BYTE	W04
	BYTE	PEND
// 020   ----------------------------------------
FE4_Attack_7_020:
	BYTE	W02
	BYTE		N23     An1   v092
	BYTE	W30
	BYTE		N02     An1   v064
	BYTE	W06
	BYTE		        An1   v084
	BYTE	W06
	BYTE		        An1   v092
	BYTE	W04
	BYTE	PEND
// 021   ----------------------------------------
FE4_Attack_7_021:
	BYTE	W02
	BYTE		N05     As1   v064
	BYTE	W06
	BYTE		        Cn2 
	BYTE	W06
	BYTE		        Cs2   v060
	BYTE	W06
	BYTE		        Ds2   v056
	BYTE	W06
	BYTE		N23     Fn2   v060
	BYTE	W22
	BYTE	PEND
// 022   ----------------------------------------
FE4_Attack_7_022:
	BYTE	W02
	BYTE		N22     Fs2   v052
	BYTE	W24
	BYTE		N23     Gn2   v056
	BYTE	W22
	BYTE	PEND
// 023   ----------------------------------------
	BYTE	W48
// 024   ----------------------------------------
	BYTE	W48
// 025   ----------------------------------------
FE4_Attack_7_025:
	BYTE	W02
	BYTE		VOICE   2
	BYTE		PAN     c_v-14
	BYTE		N44     Fs2   v064
	BYTE	W44
	BYTE	W02
	BYTE	PEND
// 026   ----------------------------------------
FE4_Attack_7_026:
	BYTE	W02
	BYTE		N44     Gs2   v064
	BYTE	W44
	BYTE	W02
	BYTE	PEND
// 027   ----------------------------------------
	BYTE	PATT
	 POIN2	FE4_Attack_7_026
// 028   ----------------------------------------
FE4_Attack_7_028:
	BYTE	W02
	BYTE		N44     Cn3   v060
	BYTE	W44
	BYTE	W02
	BYTE	PEND
// 029   ----------------------------------------
	BYTE	W02
	BYTE		N03     Gn2   v076
	BYTE	W06
	BYTE		N04   
	BYTE	W07
	BYTE		PAN     c_v+25
	BYTE		N03     Gn2   v040
	BYTE	W08
	BYTE		PAN     c_v-34
	BYTE		N03   
	BYTE	W07
	BYTE		PAN     c_v+43
	BYTE		N02   
	BYTE	W08
	BYTE		PAN     c_v-49
	BYTE		N02   
	BYTE	W10
// 030   ----------------------------------------
	BYTE	W02
	BYTE		PAN     c_v+14
	BYTE		N02     An2   v068
	BYTE	W06
	BYTE		N04     An2   v072
	BYTE	W07
	BYTE		PAN     c_v-25
	BYTE		N03     An2   v032
	BYTE	W08
	BYTE		PAN     c_v+34
	BYTE		N03   
	BYTE	W07
	BYTE		PAN     c_v-43
	BYTE		N02   
	BYTE	W08
	BYTE		PAN     c_v+49
	BYTE		N02   
	BYTE	W10
// 031   ----------------------------------------
	BYTE	W02
	BYTE		PAN     c_v-14
	BYTE		N02     As2   v060
	BYTE	W06
	BYTE		N04     As2   v064
	BYTE	W07
	BYTE		PAN     c_v+25
	BYTE		N03     As2   v032
	BYTE	W08
	BYTE		PAN     c_v-34
	BYTE		N03   
	BYTE	W07
	BYTE		PAN     c_v+43
	BYTE		N02   
	BYTE	W08
	BYTE		PAN     c_v-49
	BYTE		N02   
	BYTE	W10
// 032   ----------------------------------------
FE4_Attack_7_032:
	BYTE	W02
	BYTE		PAN     c_v-14
	BYTE		N22     An2   v092
	BYTE	W24
	BYTE		PAN     c_v-25
	BYTE		N14     Dn2 
	BYTE	W22
	BYTE	PEND
// 033   ----------------------------------------
	BYTE	PATT
	 POIN2	FE4_Attack_7_015
// 034   ----------------------------------------
	BYTE	PATT
	 POIN2	FE4_Attack_7_016
// 035   ----------------------------------------
	BYTE	PATT
	 POIN2	FE4_Attack_7_017
// 036   ----------------------------------------
	BYTE	PATT
	 POIN2	FE4_Attack_7_018
// 037   ----------------------------------------
	BYTE	PATT
	 POIN2	FE4_Attack_7_019
// 038   ----------------------------------------
	BYTE	PATT
	 POIN2	FE4_Attack_7_020
// 039   ----------------------------------------
	BYTE	PATT
	 POIN2	FE4_Attack_7_021
// 040   ----------------------------------------
	BYTE	PATT
	 POIN2	FE4_Attack_7_022
// 041   ----------------------------------------
	BYTE	W48
// 042   ----------------------------------------
	BYTE	W48
// 043   ----------------------------------------
	BYTE	PATT
	 POIN2	FE4_Attack_7_025
// 044   ----------------------------------------
	BYTE	PATT
	 POIN2	FE4_Attack_7_026
// 045   ----------------------------------------
	BYTE	PATT
	 POIN2	FE4_Attack_7_026
// 046   ----------------------------------------
	BYTE	PATT
	 POIN2	FE4_Attack_7_028
// 047   ----------------------------------------
	BYTE	W02
	BYTE		N03     Gn2   v076
	BYTE	W06
	BYTE		N04   
	BYTE	W08
	BYTE		PAN     c_v+25
	BYTE		N03     Gn2   v040
	BYTE	W07
	BYTE		PAN     c_v-34
	BYTE		N03   
	BYTE	W08
	BYTE		PAN     c_v+43
	BYTE		N02   
	BYTE	W07
	BYTE		PAN     c_v-49
	BYTE		N02   
	BYTE	W10
// 048   ----------------------------------------
	BYTE	W02
	BYTE		PAN     c_v+14
	BYTE		N02     An2   v068
	BYTE	W06
	BYTE		N04     An2   v072
	BYTE	W08
	BYTE		PAN     c_v-25
	BYTE		N03     An2   v032
	BYTE	W07
	BYTE		PAN     c_v+34
	BYTE		N03   
	BYTE	W08
	BYTE		PAN     c_v-43
	BYTE		N02   
	BYTE	W07
	BYTE		PAN     c_v+49
	BYTE		N02   
	BYTE	W10
// 049   ----------------------------------------
	BYTE	W02
	BYTE		PAN     c_v-14
	BYTE		N02     As2   v060
	BYTE	W06
	BYTE		N04     As2   v064
	BYTE	W08
	BYTE		PAN     c_v+25
	BYTE		N03     As2   v032
	BYTE	W07
	BYTE		PAN     c_v-34
	BYTE		N03   
	BYTE	W08
	BYTE		PAN     c_v+43
	BYTE		N02   
	BYTE	W07
	BYTE		PAN     c_v-49
	BYTE		N02   
	BYTE	W10
// 050   ----------------------------------------
	BYTE	PATT
	 POIN2	FE4_Attack_7_032
// 051   ----------------------------------------
	BYTE	W01
	BYTE	FINE

//**************** Track 8 (Midi-Chn.8) ****************//

FE4_Attack_8:
	BYTE	KEYSH   FE4_Attack_key+0
// 000   ----------------------------------------
	BYTE		VOICE   36
	BYTE		VOL     106*FE4_Attack_mvl/mxv
	BYTE	W96
FE4_Attack_8_B1:
// 001   ----------------------------------------
	BYTE	W96
// 002   ----------------------------------------
	BYTE	W96
// 003   ----------------------------------------
	BYTE	W96
// 004   ----------------------------------------
	BYTE	W96
// 005   ----------------------------------------
	BYTE	W01
	BYTE		PAN     c_v+0
	BYTE		N02     Fn2   v088
	BYTE	W03
	BYTE		N01     Fn2   v064
	BYTE	W03
	BYTE		        Fn2   v056
	BYTE	W03
	BYTE		        Fn2   v064
	BYTE	W03
	BYTE		N02     Fn2   v088
	BYTE	W03
	BYTE		        Fn2   v068
	BYTE	W03
	BYTE		        Fn2   v052
	BYTE	W03
	BYTE		        Fn2   v060
	BYTE	W03
	BYTE		        Fn2   v092
	BYTE	W03
	BYTE		N01     Fn2   v072
	BYTE	W03
	BYTE		        Fn2   v076
	BYTE	W03
	BYTE		        Fn2   v084
	BYTE	W03
	BYTE		N02     Fn2   v104
	BYTE	W03
	BYTE		N01     Fn2   v084
	BYTE	W03
	BYTE		        Fn2   v088
	BYTE	W03
	BYTE		N01   
	BYTE	W02
// 006   ----------------------------------------
	BYTE	W01
	BYTE		N02   
	BYTE	W03
	BYTE		N01     Fn2   v064
	BYTE	W03
	BYTE		        Fn2   v056
	BYTE	W03
	BYTE		        Fn2   v064
	BYTE	W03
	BYTE		N02     Fn2   v088
	BYTE	W03
	BYTE		        Fn2   v068
	BYTE	W03
	BYTE		        Fn2   v052
	BYTE	W03
	BYTE		        Fn2   v060
	BYTE	W03
	BYTE		        Fn2   v092
	BYTE	W03
	BYTE		N01     Fn2   v072
	BYTE	W03
	BYTE		        Fn2   v076
	BYTE	W03
	BYTE		        Fn2   v084
	BYTE	W03
	BYTE		N02     Fn2   v104
	BYTE	W03
	BYTE		        Fn2   v084
	BYTE	W03
	BYTE		        Fn2   v088
	BYTE	W03
	BYTE		N02   
	BYTE	W02
// 007   ----------------------------------------
FE4_Attack_8_007:
	BYTE	W01
	BYTE		N02     Fs2   v088
	BYTE	W03
	BYTE		N01     Fs2   v064
	BYTE	W03
	BYTE		        Fs2   v056
	BYTE	W03
	BYTE		        Fs2   v064
	BYTE	W03
	BYTE		N02     Fs2   v088
	BYTE	W03
	BYTE		        Fs2   v068
	BYTE	W03
	BYTE		        Fs2   v052
	BYTE	W03
	BYTE		        Fs2   v060
	BYTE	W03
	BYTE		        Fs2   v092
	BYTE	W03
	BYTE		N01     Fs2   v072
	BYTE	W03
	BYTE		        Fs2   v076
	BYTE	W03
	BYTE		        Fs2   v084
	BYTE	W03
	BYTE		N02     Fs2   v104
	BYTE	W03
	BYTE		N01     Fs2   v084
	BYTE	W03
	BYTE		        Fs2   v088
	BYTE	W03
	BYTE		N01   
	BYTE	W02
	BYTE	PEND
// 008   ----------------------------------------
	BYTE	PATT
	 POIN2	FE4_Attack_8_007
// 009   ----------------------------------------
	BYTE	W01
	BYTE		N02     Fn2   v088
	BYTE	W03
	BYTE		N01     Fn2   v064
	BYTE	W03
	BYTE		        Fn2   v056
	BYTE	W03
	BYTE		        Fn2   v064
	BYTE	W03
	BYTE		N02     Fn2   v088
	BYTE	W03
	BYTE		        Fn2   v068
	BYTE	W03
	BYTE		        Fn2   v052
	BYTE	W03
	BYTE		        Fn2   v060
	BYTE	W03
	BYTE		        Fn2   v092
	BYTE	W03
	BYTE		N01     Fn2   v072
	BYTE	W03
	BYTE		        Fn2   v076
	BYTE	W03
	BYTE		        Fn2   v084
	BYTE	W03
	BYTE		N02     Fn2   v104
	BYTE	W03
	BYTE		        Fn2   v084
	BYTE	W03
	BYTE		        Fn2   v088
	BYTE	W03
	BYTE		        Fn2   v080
	BYTE	W02
// 010   ----------------------------------------
	BYTE	W01
	BYTE		        Fs2   v088
	BYTE	W03
	BYTE		N01     Fs2   v064
	BYTE	W03
	BYTE		        Fs2   v056
	BYTE	W03
	BYTE		        Fs2   v064
	BYTE	W03
	BYTE		N02     Fs2   v088
	BYTE	W03
	BYTE		N01     Fs2   v068
	BYTE	W03
	BYTE		        Fs2   v052
	BYTE	W03
	BYTE		        Fs2   v060
	BYTE	W03
	BYTE		N02     Fs2   v092
	BYTE	W03
	BYTE		N01     Fs2   v072
	BYTE	W03
	BYTE		        Fs2   v076
	BYTE	W03
	BYTE		        Fs2   v084
	BYTE	W03
	BYTE		N02     Fs2   v104
	BYTE	W03
	BYTE		N01     Fs2   v084
	BYTE	W03
	BYTE		        Fs2   v088
	BYTE	W03
	BYTE		N01   
	BYTE	W02
// 011   ----------------------------------------
	BYTE	W01
	BYTE		N04     Gn2   v108
	BYTE	W06
	BYTE		N05     Gn2   v116
	BYTE	W40
	BYTE	W01
// 012   ----------------------------------------
	BYTE	W01
	BYTE		N04     An2   v104
	BYTE	W06
	BYTE		N05     An2   v108
	BYTE	W40
	BYTE	W01
// 013   ----------------------------------------
	BYTE	W01
	BYTE		N02     As2   v104
	BYTE	W06
	BYTE		N04   
	BYTE	W40
	BYTE	W01
// 014   ----------------------------------------
	BYTE	W01
	BYTE		N22     An2 
	BYTE	W24
	BYTE		N17     Dn2   v096
	BYTE	W21
	BYTE	W02
	BYTE	GoTo
	 POIN2	FE4_Attack_8_B1
FE4_Attack_8_B2:
// 015   ----------------------------------------
	BYTE	W48
// 016   ----------------------------------------
	BYTE	W48
// 017   ----------------------------------------
	BYTE	W48
// 018   ----------------------------------------
	BYTE	W48
// 019   ----------------------------------------
	BYTE	W48
// 020   ----------------------------------------
	BYTE	W48
// 021   ----------------------------------------
	BYTE	W48
// 022   ----------------------------------------
	BYTE	W48
// 023   ----------------------------------------
FE4_Attack_8_023:
	BYTE	W02
	BYTE		VOICE   1
	BYTE		PAN     c_v+0
	BYTE		N02     Fn2   v088
	BYTE	W03
	BYTE		N01     Fn2   v064
	BYTE	W03
	BYTE		        Fn2   v056
	BYTE	W03
	BYTE		        Fn2   v064
	BYTE	W03
	BYTE		N02     Fn2   v088
	BYTE	W03
	BYTE		        Fn2   v068
	BYTE	W03
	BYTE		        Fn2   v052
	BYTE	W03
	BYTE		        Fn2   v060
	BYTE	W03
	BYTE		        Fn2   v092
	BYTE	W03
	BYTE		N01     Fn2   v072
	BYTE	W03
	BYTE		        Fn2   v076
	BYTE	W03
	BYTE		        Fn2   v084
	BYTE	W03
	BYTE		N02     Fn2   v104
	BYTE	W03
	BYTE		N01     Fn2   v084
	BYTE	W03
	BYTE		        Fn2   v088
	BYTE	W03
	BYTE		N01   
	BYTE	W01
	BYTE	PEND
// 024   ----------------------------------------
FE4_Attack_8_024:
	BYTE	W02
	BYTE		N02     Fn2   v088
	BYTE	W03
	BYTE		N01     Fn2   v064
	BYTE	W03
	BYTE		        Fn2   v056
	BYTE	W03
	BYTE		        Fn2   v064
	BYTE	W03
	BYTE		N02     Fn2   v088
	BYTE	W03
	BYTE		        Fn2   v068
	BYTE	W03
	BYTE		        Fn2   v052
	BYTE	W03
	BYTE		        Fn2   v060
	BYTE	W03
	BYTE		        Fn2   v092
	BYTE	W03
	BYTE		N01     Fn2   v072
	BYTE	W03
	BYTE		        Fn2   v076
	BYTE	W03
	BYTE		        Fn2   v084
	BYTE	W03
	BYTE		N02     Fn2   v104
	BYTE	W03
	BYTE		        Fn2   v084
	BYTE	W03
	BYTE		        Fn2   v088
	BYTE	W03
	BYTE		N02   
	BYTE	W01
	BYTE	PEND
// 025   ----------------------------------------
FE4_Attack_8_025:
	BYTE	W02
	BYTE		N02     Fs2   v088
	BYTE	W03
	BYTE		N01     Fs2   v064
	BYTE	W03
	BYTE		        Fs2   v056
	BYTE	W03
	BYTE		        Fs2   v064
	BYTE	W03
	BYTE		N02     Fs2   v088
	BYTE	W03
	BYTE		        Fs2   v068
	BYTE	W03
	BYTE		        Fs2   v052
	BYTE	W03
	BYTE		        Fs2   v060
	BYTE	W03
	BYTE		        Fs2   v092
	BYTE	W03
	BYTE		N01     Fs2   v072
	BYTE	W03
	BYTE		        Fs2   v076
	BYTE	W03
	BYTE		        Fs2   v084
	BYTE	W03
	BYTE		N02     Fs2   v104
	BYTE	W03
	BYTE		N01     Fs2   v084
	BYTE	W03
	BYTE		        Fs2   v088
	BYTE	W03
	BYTE		N01   
	BYTE	W01
	BYTE	PEND
// 026   ----------------------------------------
	BYTE	PATT
	 POIN2	FE4_Attack_8_025
// 027   ----------------------------------------
FE4_Attack_8_027:
	BYTE	W02
	BYTE		N02     Fn2   v088
	BYTE	W03
	BYTE		N01     Fn2   v064
	BYTE	W03
	BYTE		        Fn2   v056
	BYTE	W03
	BYTE		        Fn2   v064
	BYTE	W03
	BYTE		N02     Fn2   v088
	BYTE	W03
	BYTE		        Fn2   v068
	BYTE	W03
	BYTE		        Fn2   v052
	BYTE	W03
	BYTE		        Fn2   v060
	BYTE	W03
	BYTE		        Fn2   v092
	BYTE	W03
	BYTE		N01     Fn2   v072
	BYTE	W03
	BYTE		        Fn2   v076
	BYTE	W03
	BYTE		        Fn2   v084
	BYTE	W03
	BYTE		N02     Fn2   v104
	BYTE	W03
	BYTE		        Fn2   v084
	BYTE	W03
	BYTE		        Fn2   v088
	BYTE	W03
	BYTE		        Fn2   v080
	BYTE	W01
	BYTE	PEND
// 028   ----------------------------------------
FE4_Attack_8_028:
	BYTE	W02
	BYTE		N02     Fs2   v088
	BYTE	W03
	BYTE		N01     Fs2   v064
	BYTE	W03
	BYTE		        Fs2   v056
	BYTE	W03
	BYTE		        Fs2   v064
	BYTE	W03
	BYTE		N02     Fs2   v088
	BYTE	W03
	BYTE		N01     Fs2   v068
	BYTE	W03
	BYTE		        Fs2   v052
	BYTE	W03
	BYTE		        Fs2   v060
	BYTE	W03
	BYTE		N02     Fs2   v092
	BYTE	W03
	BYTE		N01     Fs2   v072
	BYTE	W03
	BYTE		        Fs2   v076
	BYTE	W03
	BYTE		        Fs2   v084
	BYTE	W03
	BYTE		N02     Fs2   v104
	BYTE	W03
	BYTE		N01     Fs2   v084
	BYTE	W03
	BYTE		        Fs2   v088
	BYTE	W03
	BYTE		N01   
	BYTE	W01
	BYTE	PEND
// 029   ----------------------------------------
FE4_Attack_8_029:
	BYTE	W02
	BYTE		N04     Gn2   v108
	BYTE	W06
	BYTE		N05     Gn2   v116
	BYTE	W40
	BYTE	PEND
// 030   ----------------------------------------
FE4_Attack_8_030:
	BYTE	W02
	BYTE		N04     An2   v104
	BYTE	W06
	BYTE		N05     An2   v108
	BYTE	W40
	BYTE	PEND
// 031   ----------------------------------------
FE4_Attack_8_031:
	BYTE	W02
	BYTE		N02     As2   v104
	BYTE	W06
	BYTE		N04   
	BYTE	W40
	BYTE	PEND
// 032   ----------------------------------------
FE4_Attack_8_032:
	BYTE	W02
	BYTE		N22     An2   v104
	BYTE	W24
	BYTE		N17     Dn2   v096
	BYTE	W21
	BYTE	W01
	BYTE	PEND
// 033   ----------------------------------------
	BYTE	W48
// 034   ----------------------------------------
	BYTE	W48
// 035   ----------------------------------------
	BYTE	W48
// 036   ----------------------------------------
	BYTE	W48
// 037   ----------------------------------------
	BYTE	W48
// 038   ----------------------------------------
	BYTE	W48
// 039   ----------------------------------------
	BYTE	W48
// 040   ----------------------------------------
	BYTE	W48
// 041   ----------------------------------------
	BYTE	PATT
	 POIN2	FE4_Attack_8_023
// 042   ----------------------------------------
	BYTE	PATT
	 POIN2	FE4_Attack_8_024
// 043   ----------------------------------------
	BYTE	PATT
	 POIN2	FE4_Attack_8_025
// 044   ----------------------------------------
	BYTE	PATT
	 POIN2	FE4_Attack_8_025
// 045   ----------------------------------------
	BYTE	PATT
	 POIN2	FE4_Attack_8_027
// 046   ----------------------------------------
	BYTE	PATT
	 POIN2	FE4_Attack_8_028
// 047   ----------------------------------------
	BYTE	PATT
	 POIN2	FE4_Attack_8_029
// 048   ----------------------------------------
	BYTE	PATT
	 POIN2	FE4_Attack_8_030
// 049   ----------------------------------------
	BYTE	PATT
	 POIN2	FE4_Attack_8_031
// 050   ----------------------------------------
	BYTE	PATT
	 POIN2	FE4_Attack_8_032
// 051   ----------------------------------------
	BYTE	W01
	BYTE	FINE

//**************** Track 9 (Midi-Chn.9) ****************//

FE4_Attack_9:
	BYTE		VOL     127*FE4_Attack_mvl/mxv
	BYTE	KEYSH   FE4_Attack_key+0
// 000   ----------------------------------------
	BYTE		VOICE   127
	BYTE	W13
	BYTE		N17     Fs1   v072
	BYTE	W18
	BYTE		        Fn1   v068
	BYTE	W18
	BYTE		N23     Gn1   v076
	BYTE	W24
	BYTE		N05     Fs1   v072
	BYTE	W06
	BYTE		        Dn1 
	BYTE	W06
	BYTE		        Gn1   v076
	BYTE	W06
	BYTE		        An1   v084
	BYTE	W05
FE4_Attack_9_B1:
// 001   ----------------------------------------
	BYTE	W01
	BYTE		N17     Fs2   v084
	BYTE	W18
	BYTE		        Fs2   v092
	BYTE	W18
	BYTE		N11   
	BYTE	W18
	BYTE		N17     Fs2   v096
	BYTE	W18
	BYTE		N11     Fs2   v100
	BYTE	W12
	BYTE		N05     Fs2   v092
	BYTE	W06
	BYTE		        En1 
	BYTE	W05
// 002   ----------------------------------------
	BYTE	W01
	BYTE		N17     Fs2   v096
	BYTE	W18
	BYTE		        Fs2   v092
	BYTE	W18
	BYTE		N11   
	BYTE	W18
	BYTE		N17     Fs2   v096
	BYTE	W18
	BYTE		N11     Fs2   v092
	BYTE	W12
	BYTE		N05     Fs2   v096
	BYTE	W06
	BYTE		        En1   v092
	BYTE	W05
// 003   ----------------------------------------
	BYTE	W01
	BYTE		N23     Fs2   v076
	BYTE	W24
	BYTE		N02     Fs1 
	BYTE	W03
	BYTE		N05     Dn1   v060
	BYTE	W06
	BYTE		N02     Fs1   v064
	BYTE	W03
	BYTE		N11     Gs1   v072
	BYTE	W42
	BYTE		N02     Fs1   v092
	BYTE	W03
	BYTE		        Dn1   v064
	BYTE	W03
	BYTE		        Fn1   v072
	BYTE	W03
	BYTE		        Fs1   v076
	BYTE	W03
	BYTE		        Gn1   v064
	BYTE	W03
	BYTE		N14     Gs1   v072
	BYTE	W02
// 004   ----------------------------------------
	BYTE	W48
	BYTE	W02
	BYTE		N11     Fs1   v068
	BYTE	W12
	BYTE		        Fs1   v072
	BYTE	W12
	BYTE		        Fs1   v084
	BYTE	W11
	BYTE		N10     Fs1   v088
	BYTE	W11
// 005   ----------------------------------------
	BYTE	W01
	BYTE		N03     Cs1   v064
	BYTE		N05     Fs1   v072
	BYTE	W06
	BYTE		N02     Fs1   v044
	BYTE	W03
	BYTE		N02   
	BYTE	W03
	BYTE		N05     Fs1   v092
	BYTE	W06
	BYTE		N02     Fs1   v028
	BYTE	W03
	BYTE		        Fs1   v032
	BYTE	W03
	BYTE		N05     Fs1   v080
	BYTE	W06
	BYTE		N02     Fs1   v028
	BYTE	W03
	BYTE		        Fs1   v044
	BYTE	W03
	BYTE		N05     Fs1   v088
	BYTE	W06
	BYTE		N02     Fs1   v040
	BYTE	W03
	BYTE		        Fs1   v044
	BYTE	W02
// 006   ----------------------------------------
	BYTE	W01
	BYTE		N05     Fs1   v080
	BYTE	W01
	BYTE		N03     Cs1   v064
	BYTE	W05
	BYTE		N02     Fs1   v032
	BYTE	W03
	BYTE		        Fs1   v040
	BYTE	W03
	BYTE		N05     Fs1   v088
	BYTE	W06
	BYTE		N02     Fs1   v040
	BYTE	W03
	BYTE		        Fs1   v044
	BYTE	W03
	BYTE		N05     Fs1   v080
	BYTE	W06
	BYTE		N02     Fs1   v028
	BYTE	W03
	BYTE		        Fs1   v044
	BYTE	W03
	BYTE		N05     Fs1   v088
	BYTE	W06
	BYTE		N02     Fs1   v040
	BYTE	W03
	BYTE		        Fs1   v044
	BYTE	W02
// 007   ----------------------------------------
	BYTE	W01
	BYTE		N05     Fs1   v072
	BYTE	W01
	BYTE		N03     Cs1   v064
	BYTE	W05
	BYTE		N02     Fs1   v044
	BYTE	W03
	BYTE		N02   
	BYTE	W03
	BYTE		N05     Fs1   v092
	BYTE	W06
	BYTE		N02     Fs1   v032
	BYTE	W03
	BYTE		        Fs1   v040
	BYTE	W03
	BYTE		N05     Fs1   v080
	BYTE	W06
	BYTE		N02     Fs1   v028
	BYTE	W03
	BYTE		        Fs1   v044
	BYTE	W03
	BYTE		N05     Fs1   v088
	BYTE	W06
	BYTE		N02     Fs1   v040
	BYTE	W03
	BYTE		        Fs1   v044
	BYTE	W02
// 008   ----------------------------------------
	BYTE	W01
	BYTE		N05     Fs1   v080
	BYTE	W01
	BYTE		N03     Cs1   v064
	BYTE	W05
	BYTE		N02     Fs1   v032
	BYTE	W03
	BYTE		        Fs1   v044
	BYTE	W03
	BYTE		N05     Fs1   v088
	BYTE	W06
	BYTE		N02     Fs1   v040
	BYTE	W03
	BYTE		        Fs1   v044
	BYTE	W03
	BYTE		N05     Fs1   v080
	BYTE	W06
	BYTE		N02     Fs1   v028
	BYTE	W03
	BYTE		        Fs1   v040
	BYTE	W03
	BYTE		N05     Fs1   v088
	BYTE	W06
	BYTE		N02     Fs1   v040
	BYTE	W03
	BYTE		        Fs1   v044
	BYTE	W02
// 009   ----------------------------------------
	BYTE	W01
	BYTE		N03     Cs1   v064
	BYTE		N05     Fs1   v072
	BYTE	W06
	BYTE		N02     Fs1   v044
	BYTE	W03
	BYTE		N02   
	BYTE	W03
	BYTE		N05     Fs1   v092
	BYTE	W06
	BYTE		N02     Fs1   v028
	BYTE	W03
	BYTE		        Fs1   v032
	BYTE	W03
	BYTE		N05     Fs1   v080
	BYTE	W06
	BYTE		N02     Fs1   v032
	BYTE	W03
	BYTE		        Fs1   v040
	BYTE	W03
	BYTE		N05     Fs1   v088
	BYTE	W06
	BYTE		N02     Fs1   v040
	BYTE	W03
	BYTE		        Fs1   v044
	BYTE	W02
// 010   ----------------------------------------
	BYTE	W01
	BYTE		N05     Fs1   v080
	BYTE	W01
	BYTE		N03     Cs1   v064
	BYTE	W05
	BYTE		N02     Fs1   v032
	BYTE	W03
	BYTE		        Fs1   v040
	BYTE	W03
	BYTE		N05     Fs1   v088
	BYTE	W06
	BYTE		N02     Fs1   v040
	BYTE	W03
	BYTE		        Fs1   v044
	BYTE	W03
	BYTE		N05     Fs1   v080
	BYTE	W06
	BYTE		N02     Fs1   v032
	BYTE	W03
	BYTE		        Fs1   v040
	BYTE	W03
	BYTE		N05     Fs1   v088
	BYTE	W06
	BYTE		N02     Fs1   v040
	BYTE	W03
	BYTE		        Fs1   v044
	BYTE	W02
// 011   ----------------------------------------
	BYTE	W01
	BYTE		N11     Fs1   v064
	BYTE	W12
	BYTE		        Fs1   v060
	BYTE	W12
	BYTE		N11   
	BYTE	W12
	BYTE		        Fs1   v064
	BYTE	W11
// 012   ----------------------------------------
	BYTE	W01
	BYTE		        Fs1   v060
	BYTE	W12
	BYTE		        Fs1   v064
	BYTE	W12
	BYTE		        Fs1   v060
	BYTE	W12
	BYTE		        Fs1   v072
	BYTE	W11
// 013   ----------------------------------------
	BYTE	W01
	BYTE		        Fs1   v060
	BYTE	W12
	BYTE		        Fs1   v064
	BYTE	W12
	BYTE		        Fs1   v052
	BYTE	W12
	BYTE		        Fs1   v060
	BYTE	W11
// 014   ----------------------------------------
	BYTE	W01
	BYTE		N11   
	BYTE	W12
	BYTE		        Fs1   v072
	BYTE	W12
	BYTE		        Fs1   v060
	BYTE	W12
	BYTE		        Fs1   v064
	BYTE	W11
	BYTE	GoTo
	 POIN2	FE4_Attack_9_B1
FE4_Attack_9_B2:
// 015   ----------------------------------------
FE4_Attack_9_015:
	BYTE	W02
	BYTE		N17     Fs2   v084
	BYTE	W18
	BYTE		        Fs2   v092
	BYTE	W18
	BYTE		N11   
	BYTE	W10
	BYTE	PEND
// 016   ----------------------------------------
FE4_Attack_9_016:
	BYTE	W08
	BYTE		N17     Fs2   v096
	BYTE	W18
	BYTE		N11     Fs2   v100
	BYTE	W12
	BYTE		N05     Fs2   v092
	BYTE	W06
	BYTE		        En1 
	BYTE	W04
	BYTE	PEND
// 017   ----------------------------------------
FE4_Attack_9_017:
	BYTE	W02
	BYTE		N17     Fs2   v096
	BYTE	W18
	BYTE		        Fs2   v092
	BYTE	W18
	BYTE		N11   
	BYTE	W10
	BYTE	PEND
// 018   ----------------------------------------
FE4_Attack_9_018:
	BYTE	W08
	BYTE		N17     Fs2   v096
	BYTE	W18
	BYTE		N11     Fs2   v092
	BYTE	W12
	BYTE		N05     Fs2   v096
	BYTE	W06
	BYTE		        En1   v092
	BYTE	W04
	BYTE	PEND
// 019   ----------------------------------------
FE4_Attack_9_019:
	BYTE	W02
	BYTE		N23     Fs2   v076
	BYTE	W24
	BYTE		N02     Fs1 
	BYTE	W03
	BYTE		N05     Dn1   v060
	BYTE	W06
	BYTE		N02     Fs1   v064
	BYTE	W03
	BYTE		N11     Gs1   v072
	BYTE	W10
	BYTE	PEND
// 020   ----------------------------------------
FE4_Attack_9_020:
	BYTE	W32
	BYTE		N02     Fs1   v092
	BYTE	W03
	BYTE		        Dn1   v064
	BYTE	W03
	BYTE		        Fn1   v072
	BYTE	W03
	BYTE		        Fs1   v076
	BYTE	W03
	BYTE		        Gn1   v064
	BYTE	W03
	BYTE		N14     Gs1   v072
	BYTE	W01
	BYTE	PEND
// 021   ----------------------------------------
	BYTE	W48
// 022   ----------------------------------------
	BYTE	W02
	BYTE		N11     Fs1   v068
	BYTE	W12
	BYTE		        Fs1   v072
	BYTE	W12
	BYTE		        Fs1   v084
	BYTE	W12
	BYTE		N10     Fs1   v088
	BYTE	W10
// 023   ----------------------------------------
FE4_Attack_9_023:
	BYTE	W02
	BYTE		N05     Fs1   v072
	BYTE	W06
	BYTE		N02     Fs1   v044
	BYTE	W03
	BYTE		N02   
	BYTE	W03
	BYTE		N05     Fs1   v092
	BYTE	W06
	BYTE		N02     Fs1   v028
	BYTE	W03
	BYTE		        Fs1   v032
	BYTE	W03
	BYTE		N05     Fs1   v080
	BYTE	W06
	BYTE		N02     Fs1   v028
	BYTE	W03
	BYTE		        Fs1   v044
	BYTE	W03
	BYTE		N05     Fs1   v088
	BYTE	W06
	BYTE		N02     Fs1   v040
	BYTE	W03
	BYTE		        Fs1   v044
	BYTE	W01
	BYTE	PEND
// 024   ----------------------------------------
FE4_Attack_9_024:
	BYTE	W02
	BYTE		N05     Fs1   v080
	BYTE	W06
	BYTE		N02     Fs1   v032
	BYTE	W03
	BYTE		        Fs1   v040
	BYTE	W03
	BYTE		N05     Fs1   v088
	BYTE	W06
	BYTE		N02     Fs1   v040
	BYTE	W03
	BYTE		        Fs1   v044
	BYTE	W03
	BYTE		N05     Fs1   v080
	BYTE	W06
	BYTE		N02     Fs1   v028
	BYTE	W03
	BYTE		        Fs1   v044
	BYTE	W03
	BYTE		N05     Fs1   v088
	BYTE	W06
	BYTE		N02     Fs1   v040
	BYTE	W03
	BYTE		        Fs1   v044
	BYTE	W01
	BYTE	PEND
// 025   ----------------------------------------
FE4_Attack_9_025:
	BYTE	W02
	BYTE		N05     Fs1   v072
	BYTE	W06
	BYTE		N02     Fs1   v044
	BYTE	W03
	BYTE		N02   
	BYTE	W03
	BYTE		N05     Fs1   v092
	BYTE	W06
	BYTE		N02     Fs1   v032
	BYTE	W03
	BYTE		        Fs1   v040
	BYTE	W03
	BYTE		N05     Fs1   v080
	BYTE	W06
	BYTE		N02     Fs1   v028
	BYTE	W03
	BYTE		        Fs1   v044
	BYTE	W03
	BYTE		N05     Fs1   v088
	BYTE	W06
	BYTE		N02     Fs1   v040
	BYTE	W03
	BYTE		        Fs1   v044
	BYTE	W01
	BYTE	PEND
// 026   ----------------------------------------
FE4_Attack_9_026:
	BYTE	W02
	BYTE		N05     Fs1   v080
	BYTE	W06
	BYTE		N02     Fs1   v032
	BYTE	W03
	BYTE		        Fs1   v044
	BYTE	W03
	BYTE		N05     Fs1   v088
	BYTE	W06
	BYTE		N02     Fs1   v040
	BYTE	W03
	BYTE		        Fs1   v044
	BYTE	W03
	BYTE		N05     Fs1   v080
	BYTE	W06
	BYTE		N02     Fs1   v028
	BYTE	W03
	BYTE		        Fs1   v040
	BYTE	W03
	BYTE		N05     Fs1   v088
	BYTE	W06
	BYTE		N02     Fs1   v040
	BYTE	W03
	BYTE		        Fs1   v044
	BYTE	W01
	BYTE	PEND
// 027   ----------------------------------------
FE4_Attack_9_027:
	BYTE	W02
	BYTE		N05     Fs1   v072
	BYTE	W06
	BYTE		N02     Fs1   v044
	BYTE	W03
	BYTE		N02   
	BYTE	W03
	BYTE		N05     Fs1   v092
	BYTE	W06
	BYTE		N02     Fs1   v028
	BYTE	W03
	BYTE		        Fs1   v032
	BYTE	W03
	BYTE		N05     Fs1   v080
	BYTE	W06
	BYTE		N02     Fs1   v032
	BYTE	W03
	BYTE		        Fs1   v040
	BYTE	W03
	BYTE		N05     Fs1   v088
	BYTE	W06
	BYTE		N02     Fs1   v040
	BYTE	W03
	BYTE		        Fs1   v044
	BYTE	W01
	BYTE	PEND
// 028   ----------------------------------------
FE4_Attack_9_028:
	BYTE	W02
	BYTE		N05     Fs1   v080
	BYTE	W06
	BYTE		N02     Fs1   v032
	BYTE	W03
	BYTE		        Fs1   v040
	BYTE	W03
	BYTE		N05     Fs1   v088
	BYTE	W06
	BYTE		N02     Fs1   v040
	BYTE	W03
	BYTE		        Fs1   v044
	BYTE	W03
	BYTE		N05     Fs1   v080
	BYTE	W06
	BYTE		N02     Fs1   v032
	BYTE	W03
	BYTE		        Fs1   v040
	BYTE	W03
	BYTE		N05     Fs1   v088
	BYTE	W06
	BYTE		N02     Fs1   v040
	BYTE	W03
	BYTE		        Fs1   v044
	BYTE	W01
	BYTE	PEND
// 029   ----------------------------------------
FE4_Attack_9_029:
	BYTE	W02
	BYTE		N11     Fs1   v064
	BYTE	W12
	BYTE		        Fs1   v060
	BYTE	W12
	BYTE		N11   
	BYTE	W12
	BYTE		        Fs1   v064
	BYTE	W10
	BYTE	PEND
// 030   ----------------------------------------
FE4_Attack_9_030:
	BYTE	W02
	BYTE		N11     Fs1   v060
	BYTE	W12
	BYTE		        Fs1   v064
	BYTE	W12
	BYTE		        Fs1   v060
	BYTE	W12
	BYTE		        Fs1   v072
	BYTE	W10
	BYTE	PEND
// 031   ----------------------------------------
FE4_Attack_9_031:
	BYTE	W02
	BYTE		N11     Fs1   v060
	BYTE	W12
	BYTE		        Fs1   v064
	BYTE	W12
	BYTE		        Fs1   v052
	BYTE	W12
	BYTE		        Fs1   v060
	BYTE	W10
	BYTE	PEND
// 032   ----------------------------------------
FE4_Attack_9_032:
	BYTE	W02
	BYTE		N11     Fs1   v060
	BYTE	W12
	BYTE		        Fs1   v072
	BYTE	W12
	BYTE		        Fs1   v060
	BYTE	W12
	BYTE		        Fs1   v064
	BYTE	W10
	BYTE	PEND
// 033   ----------------------------------------
	BYTE	PATT
	 POIN2	FE4_Attack_9_015
// 034   ----------------------------------------
	BYTE	PATT
	 POIN2	FE4_Attack_9_016
// 035   ----------------------------------------
	BYTE	PATT
	 POIN2	FE4_Attack_9_017
// 036   ----------------------------------------
	BYTE	PATT
	 POIN2	FE4_Attack_9_018
// 037   ----------------------------------------
	BYTE	PATT
	 POIN2	FE4_Attack_9_019
// 038   ----------------------------------------
	BYTE	PATT
	 POIN2	FE4_Attack_9_020
// 039   ----------------------------------------
	BYTE	W48
// 040   ----------------------------------------
	BYTE	W03
	BYTE		N11     Fs1   v068
	BYTE	W12
	BYTE		        Fs1   v072
	BYTE	W12
	BYTE		        Fs1   v084
	BYTE	W12
	BYTE		N10     Fs1   v088
	BYTE	W09
// 041   ----------------------------------------
	BYTE	PATT
	 POIN2	FE4_Attack_9_023
// 042   ----------------------------------------
	BYTE	PATT
	 POIN2	FE4_Attack_9_024
// 043   ----------------------------------------
	BYTE	PATT
	 POIN2	FE4_Attack_9_025
// 044   ----------------------------------------
	BYTE	PATT
	 POIN2	FE4_Attack_9_026
// 045   ----------------------------------------
	BYTE	PATT
	 POIN2	FE4_Attack_9_027
// 046   ----------------------------------------
	BYTE	PATT
	 POIN2	FE4_Attack_9_028
// 047   ----------------------------------------
	BYTE	PATT
	 POIN2	FE4_Attack_9_029
// 048   ----------------------------------------
	BYTE	PATT
	 POIN2	FE4_Attack_9_030
// 049   ----------------------------------------
	BYTE	PATT
	 POIN2	FE4_Attack_9_031
// 050   ----------------------------------------
	BYTE	PATT
	 POIN2	FE4_Attack_9_032
// 051   ----------------------------------------
	BYTE	W01
	BYTE	FINE

//******************************************************//
	ALIGN 4

FE4_Attack:
	BYTE	9	// NumTrks
	BYTE	0	// NumBlks
	BYTE	FE4_Attack_pri	// Priority
	BYTE	FE4_Attack_rev	// Reverb.

	POIN2	FE4_Attack_grp

	POIN2	FE4_Attack_1
	POIN2	FE4_Attack_2
	POIN2	FE4_Attack_3
	POIN2	FE4_Attack_4
	POIN2	FE4_Attack_5
	POIN2	FE4_Attack_6
	POIN2	FE4_Attack_7
	POIN2	FE4_Attack_8
	POIN2	FE4_Attack_9

	
