//Event file generated from Sappy .s format.
	#include "MPlayDef.event"

	#define	YuanDelta_grp  voicegroup000
	#define	YuanDelta_pri  0
	#define	YuanDelta_rev  0
	#define	YuanDelta_mvl  127
	#define	YuanDelta_key  0
	#define	YuanDelta_tbs  1
	#define	YuanDelta_exg  0
	#define	YuanDelta_cmp  1

	// .rodata
	//	YuanDelta
	ALIGN 4

//**************** Track 1 (Midi-Chn.1) ****************//

YuanDelta_1:
	BYTE	KEYSH   YuanDelta_key+0
// 000   ----------------------------------------
	BYTE	TEMPO   109*YuanDelta_tbs/2
	BYTE		VOL     63*YuanDelta_mvl/mxv
	BYTE	W96
// 001   ----------------------------------------
	BYTE	W96
// 002   ----------------------------------------
	BYTE	W96
YuanDelta_1_B1:
// 003   ----------------------------------------
	BYTE	W96
// 004   ----------------------------------------
	BYTE	W96
// 005   ----------------------------------------
	BYTE	W96
// 006   ----------------------------------------
	BYTE	W96
// 007   ----------------------------------------
	BYTE	W96
// 008   ----------------------------------------
	BYTE	W96
// 009   ----------------------------------------
	BYTE	W96
// 010   ----------------------------------------
	BYTE	W96
// 011   ----------------------------------------
	BYTE	W24
	BYTE	W01
	BYTE		VOICE   52
	BYTE		PAN     c_v+0
	BYTE		N17     Cn3   v092
	BYTE	W18
	BYTE		        Cn3   v084
	BYTE	W18
	BYTE		        Cn3   v092
	BYTE	W18
	BYTE		        Cn3   v084
	BYTE	W17
// 012   ----------------------------------------
	BYTE	W01
	BYTE		N52     Gn3   v092
	BYTE	W54
	BYTE		N08     Ds3 
	BYTE	W12
	BYTE		N05     Gn3   v084
	BYTE	W06
	BYTE		N66     Fn3   v092
	BYTE	W23
// 013   ----------------------------------------
	BYTE	W48
	BYTE	W01
	BYTE		N06     As2   v032
	BYTE	W07
	BYTE		        As2   v028
	BYTE	W07
	BYTE		        As2   v020
	BYTE	W32
	BYTE	W01
// 014   ----------------------------------------
	BYTE	W96
// 015   ----------------------------------------
	BYTE	W96
// 016   ----------------------------------------
	BYTE	W96
// 017   ----------------------------------------
	BYTE	W96
// 018   ----------------------------------------
	BYTE	W96
// 019   ----------------------------------------
	BYTE	W96
// 020   ----------------------------------------
	BYTE	W96
	BYTE	GoTo
	 POIN2	YuanDelta_1_B1
YuanDelta_1_B2:
// 021   ----------------------------------------
	BYTE	FINE

//**************** Track 2 (Midi-Chn.2) ****************//

YuanDelta_2:
	BYTE	KEYSH   YuanDelta_key+0
// 000   ----------------------------------------
	BYTE		VOL     63*YuanDelta_mvl/mxv
	BYTE	W96
// 001   ----------------------------------------
	BYTE	W96
// 002   ----------------------------------------
	BYTE	W96
YuanDelta_2_B1:
// 003   ----------------------------------------
	BYTE	W96
// 004   ----------------------------------------
	BYTE	W96
// 005   ----------------------------------------
	BYTE	W96
// 006   ----------------------------------------
	BYTE	W96
// 007   ----------------------------------------
	BYTE	W96
// 008   ----------------------------------------
	BYTE	W80
	BYTE		N02     Gs2   v072
	BYTE	W05
	BYTE		        Cn3   v080
	BYTE	W04
	BYTE		        Ds3   v072
	BYTE	W05
	BYTE		N01     Gn3   v064
	BYTE	W02
// 009   ----------------------------------------
	BYTE	W01
	BYTE		VOICE   13
	BYTE		PAN     c_v+34
	BYTE		N11     Cn3   v076
	BYTE	W12
	BYTE		N05     Cn3   v064
	BYTE	W06
	BYTE		N11     Cn3   v092
	BYTE	W12
	BYTE		N05     Cn3   v060
	BYTE	W06
	BYTE		N11     Cn3   v076
	BYTE	W12
	BYTE		N05     Cn3   v064
	BYTE	W06
	BYTE		N11     Cn3   v084
	BYTE	W12
	BYTE		N05     Cn3   v060
	BYTE	W06
	BYTE		N11     Cn3   v076
	BYTE	W12
	BYTE		N05     Cn3   v064
	BYTE	W06
	BYTE		N11     Cn3   v092
	BYTE	W05
// 010   ----------------------------------------
	BYTE	W07
	BYTE		N05     Cn3   v060
	BYTE	W06
	BYTE		N11     Cn3   v076
	BYTE	W12
	BYTE		N05     Cn3   v064
	BYTE	W06
	BYTE		N11     Cn3   v084
	BYTE	W18
	BYTE		VOICE   13
	BYTE		PAN     c_v+34
	BYTE		N11     Cn3   v076
	BYTE	W12
	BYTE		N05     Cn3   v064
	BYTE	W06
	BYTE		N11     Cn3   v092
	BYTE	W12
	BYTE		N05     Cn3   v060
	BYTE	W06
	BYTE		N11     Cn3   v076
	BYTE	W11
// 011   ----------------------------------------
	BYTE	W01
	BYTE		N05     Cn3   v064
	BYTE	W06
	BYTE		N11     Cn3   v084
	BYTE	W12
	BYTE		N05     Cn3   v060
	BYTE	W06
	BYTE		VOICE   13
	BYTE		PAN     c_v-25
	BYTE	W18
	BYTE		N11     Ds3   v072
	BYTE	W12
	BYTE		N01   
	BYTE	W24
	BYTE		N11     Dn3 
	BYTE	W12
	BYTE		N01     Dn3   v076
	BYTE	W05
// 012   ----------------------------------------
	BYTE	W01
	BYTE		VOICE   13
	BYTE		PAN     c_v+34
	BYTE		N11     Cn3 
	BYTE	W12
	BYTE		N05     Cn3   v064
	BYTE	W06
	BYTE		N11     Cn3   v092
	BYTE	W12
	BYTE		N05     Cn3   v060
	BYTE	W06
	BYTE		N11     Cn3   v076
	BYTE	W12
	BYTE		N05     Cn3   v064
	BYTE	W06
	BYTE		N11     Cn3   v084
	BYTE	W12
	BYTE		N05     Cn3   v060
	BYTE	W06
	BYTE		N11     Cn3   v076
	BYTE	W12
	BYTE		N05     Cn3   v064
	BYTE	W06
	BYTE		N11     Cn3   v092
	BYTE	W05
// 013   ----------------------------------------
	BYTE	W07
	BYTE		N05     Cn3   v060
	BYTE	W06
	BYTE		N11     Cn3   v076
	BYTE	W12
	BYTE		N05     Cn3   v064
	BYTE	W06
	BYTE		N11     Cn3   v084
	BYTE	W64
	BYTE	W01
// 014   ----------------------------------------
	BYTE	W96
// 015   ----------------------------------------
	BYTE	W96
// 016   ----------------------------------------
	BYTE	W96
// 017   ----------------------------------------
	BYTE	W96
// 018   ----------------------------------------
	BYTE	W96
// 019   ----------------------------------------
	BYTE	W96
// 020   ----------------------------------------
	BYTE	W96
	BYTE	GoTo
	 POIN2	YuanDelta_2_B1
YuanDelta_2_B2:
// 021   ----------------------------------------
	BYTE	FINE

//**************** Track 3 (Midi-Chn.3) ****************//

YuanDelta_3:
	BYTE	KEYSH   YuanDelta_key+0
// 000   ----------------------------------------
	BYTE		VOICE   18
	BYTE		VOL     63*YuanDelta_mvl/mxv
	BYTE		PAN     c_v+49
	BYTE		N24     As3   v084
	BYTE	W36
	BYTE		        Bn3 
	BYTE	W36
	BYTE		        Cs4 
	BYTE	W24
// 001   ----------------------------------------
	BYTE	W12
	BYTE		        Bn3 
	BYTE	W36
	BYTE		N48     As3 
	BYTE	W48
// 002   ----------------------------------------
	BYTE	W24
	BYTE		N24     As4 
	BYTE	W36
	BYTE		        Cs5 
	BYTE	W36
YuanDelta_3_B1:
// 003   ----------------------------------------
	BYTE	W96
// 004   ----------------------------------------
	BYTE	W96
// 005   ----------------------------------------
	BYTE	W96
// 006   ----------------------------------------
	BYTE	W96
// 007   ----------------------------------------
	BYTE	W96
// 008   ----------------------------------------
	BYTE	W78
	BYTE		N02     Gn4   v064
	BYTE	W05
	BYTE		        As4   v084
	BYTE	W04
	BYTE		        Dn5   v076
	BYTE	W05
	BYTE		        Fn5   v068
	BYTE	W04
// 009   ----------------------------------------
	BYTE		VOICE   75
	BYTE	W01
	BYTE		N54     Gn5   v092
	BYTE	W60
	BYTE		N04     Cn6   v076
	BYTE	W06
	BYTE		N05     Gn5   v084
	BYTE	W06
	BYTE		N52     Fn5   v092
	BYTE	W23
// 010   ----------------------------------------
	BYTE	W30
	BYTE	W01
	BYTE		N16     Ds5   v084
	BYTE	W18
	BYTE		N44     As5   v092
	BYTE	W44
	BYTE	W01
	BYTE		N07     Cn6   v084
	BYTE	W02
// 011   ----------------------------------------
	BYTE	W07
	BYTE		N08     As5   v092
	BYTE	W09
	BYTE		        Gs5   v080
	BYTE	W09
	BYTE		N52     Gn5   v084
	BYTE	W52
	BYTE	W01
	BYTE		N04     Cn5   v088
	BYTE	W05
	BYTE		N03     Dn5   v076
	BYTE	W05
	BYTE		        Ds5   v068
	BYTE	W04
	BYTE		        Fn5   v072
	BYTE	W04
// 012   ----------------------------------------
	BYTE	W01
	BYTE		VOICE   68
	BYTE		PAN     c_v-34
	BYTE		N32     Ds3   v056
	BYTE	W36
	BYTE		N28     Cn3   v068
	BYTE	W30
	BYTE		N05     Cn3   v064
	BYTE	W06
	BYTE		N16     Dn3   v060
	BYTE	W18
	BYTE		        Cn3   v064
	BYTE	W05
// 013   ----------------------------------------
	BYTE	W13
	BYTE		N32     As2   v072
	BYTE	W36
	BYTE		N17     Cn3   v092
	BYTE	W18
	BYTE		N05     Gs2   v104
	BYTE	W06
	BYTE		        Cn3   v076
	BYTE	W06
	BYTE		        Gs2   v084
	BYTE	W06
	BYTE		N17     Dn3   v092
	BYTE	W11
// 014   ----------------------------------------
	BYTE	W07
	BYTE		N05     Gs2   v104
	BYTE	W06
	BYTE		        Dn3   v076
	BYTE	W06
	BYTE		        Gs2   v084
	BYTE	W06
	BYTE		N17     Ds3   v092
	BYTE	W18
	BYTE		N05     As2   v104
	BYTE	W06
	BYTE		        Ds3   v076
	BYTE	W06
	BYTE		        As2   v084
	BYTE	W06
	BYTE		N17     En3   v092
	BYTE	W18
	BYTE		N05     Cs3   v104
	BYTE	W06
	BYTE		        En3   v076
	BYTE	W06
	BYTE		        Cs3   v084
	BYTE	W05
// 015   ----------------------------------------
	BYTE		VOICE   8
	BYTE	W07
	BYTE		N04     Gn4   v068
	BYTE	W12
	BYTE		        Gn4   v080
	BYTE	W12
	BYTE		        Cn5   v056
	BYTE	W12
	BYTE		        Cn5   v068
	BYTE	W12
	BYTE		        Cn5   v080
	BYTE	W12
	BYTE		        Fn4   v056
	BYTE	W12
	BYTE		        Fn4   v068
	BYTE	W12
	BYTE		        Fn4   v080
	BYTE	W05
// 016   ----------------------------------------
	BYTE	W07
	BYTE		        As4   v056
	BYTE	W12
	BYTE		        Dn5   v068
	BYTE	W12
	BYTE		        Dn5   v080
	BYTE	W12
	BYTE		N07     Fn4   v060
	BYTE	W12
	BYTE		N04     Gn4   v068
	BYTE	W12
	BYTE		        Gn4   v080
	BYTE	W12
	BYTE		        Cn5   v056
	BYTE	W12
	BYTE		        Cn5   v068
	BYTE	W05
// 017   ----------------------------------------
	BYTE	W07
	BYTE		        Cn5   v080
	BYTE	W12
	BYTE		        Fn4   v056
	BYTE	W12
	BYTE		        Fn4   v068
	BYTE	W12
	BYTE		        Fn4   v080
	BYTE	W12
	BYTE		        As4   v056
	BYTE	W12
	BYTE		        Dn5   v068
	BYTE	W12
	BYTE		        Dn5   v080
	BYTE	W12
	BYTE		N07     Fn4   v060
	BYTE	W05
// 018   ----------------------------------------
	BYTE	W07
	BYTE		VOICE   13
	BYTE		PAN     c_v-25
	BYTE	W12
	BYTE		N10     Dn3   v064
	BYTE	W12
	BYTE		N04   
	BYTE	W24
	BYTE		N07   
	BYTE	W12
	BYTE		N01     Dn3   v052
	BYTE	W24
	BYTE		N11     Ds3   v064
	BYTE	W05
// 019   ----------------------------------------
	BYTE	W07
	BYTE		N03     Ds3   v068
	BYTE	W24
	BYTE		N07     Ds3   v064
	BYTE	W12
	BYTE		N01     Ds3   v060
	BYTE	W24
	BYTE		N10     Dn3   v064
	BYTE	W12
	BYTE		N04   
	BYTE	W17
// 020   ----------------------------------------
	BYTE	W07
	BYTE		N08   
	BYTE	W12
	BYTE		N01   
	BYTE	W24
	BYTE		VOICE   1
	BYTE		PAN     c_v+43
	BYTE		N05     Gs3   v084
	BYTE	W06
	BYTE		        Ds3   v064
	BYTE	W06
	BYTE		        Gs3   v072
	BYTE	W06
	BYTE		        Cn4   v084
	BYTE	W06
	BYTE		        Gs3   v064
	BYTE	W06
	BYTE		        Cn4   v072
	BYTE	W06
	BYTE		        Ds4   v084
	BYTE	W06
	BYTE		        Cn4   v064
	BYTE	W06
	BYTE		        Ds4   v072
	BYTE	W05
	BYTE	GoTo
	 POIN2	YuanDelta_3_B1
YuanDelta_3_B2:
// 021   ----------------------------------------
	BYTE	FINE

//**************** Track 4 (Midi-Chn.4) ****************//

YuanDelta_4:
	BYTE	KEYSH   YuanDelta_key+0
// 000   ----------------------------------------
	BYTE		VOICE   18
	BYTE		VOL     63*YuanDelta_mvl/mxv
	BYTE		PAN     c_v-49
	BYTE		N24     Ds4   v092
	BYTE	W36
	BYTE		        En4 
	BYTE	W36
	BYTE		        Fs4 
	BYTE	W24
// 001   ----------------------------------------
	BYTE	W12
	BYTE		        En4 
	BYTE	W36
	BYTE		N48     Ds4 
	BYTE	W48
// 002   ----------------------------------------
	BYTE	W24
	BYTE		N24     Ds5 
	BYTE	W36
	BYTE		        Fn5 
	BYTE	W36
YuanDelta_4_B1:
// 003   ----------------------------------------
	BYTE	W96
// 004   ----------------------------------------
	BYTE	W96
// 005   ----------------------------------------
	BYTE	W96
// 006   ----------------------------------------
	BYTE	W96
// 007   ----------------------------------------
	BYTE	W96
// 008   ----------------------------------------
	BYTE	W96
// 009   ----------------------------------------
	BYTE	W19
	BYTE		VOICE   13
	BYTE		PAN     c_v-25
	BYTE		N11     Ds3   v064
	BYTE	W12
	BYTE		N02   
	BYTE	W24
	BYTE		N07   
	BYTE	W12
	BYTE		N01     Ds3   v052
	BYTE	W24
	BYTE		N11     Dn3   v064
	BYTE	W05
// 010   ----------------------------------------
	BYTE	W07
	BYTE		N02   
	BYTE	W24
	BYTE		N06     Dn3   v072
	BYTE	W12
	BYTE		N01     Dn3   v052
	BYTE	W24
	BYTE		N11     Dn3   v064
	BYTE	W12
	BYTE		N02   
	BYTE	W17
// 011   ----------------------------------------
	BYTE	W07
	BYTE		N10   
	BYTE	W12
	BYTE		N01     Dn3   v052
	BYTE	W06
	BYTE		VOICE   15
	BYTE		PAN     c_v-34
	BYTE		N17     Ds3 
	BYTE	W18
	BYTE		        Dn3   v056
	BYTE	W18
	BYTE		        Cn3   v052
	BYTE	W18
	BYTE		N16     As2   v060
	BYTE	W17
// 012   ----------------------------------------
	BYTE	W19
	BYTE		VOICE   13
	BYTE		PAN     c_v-25
	BYTE		N11     Ds3   v064
	BYTE	W12
	BYTE		N02   
	BYTE	W24
	BYTE		N07   
	BYTE	W12
	BYTE		N01     Ds3   v060
	BYTE	W24
	BYTE		N11     Dn3   v064
	BYTE	W05
// 013   ----------------------------------------
	BYTE	W07
	BYTE		N02   
	BYTE	W24
	BYTE		N08     Dn3   v072
	BYTE	W12
	BYTE		N01     Dn3   v060
	BYTE	W06
	BYTE		N32     Cn3 
	BYTE	W36
	BYTE		        Dn3   v056
	BYTE	W11
// 014   ----------------------------------------
	BYTE	W24
	BYTE	W01
	BYTE		        Ds3   v060
	BYTE	W36
	BYTE		        En3   v064
	BYTE	W32
	BYTE	W03
// 015   ----------------------------------------
	BYTE	W01
	BYTE		N04     Cn4   v088
	BYTE	W12
	BYTE		        Ds3   v056
	BYTE	W12
	BYTE		        Ds3   v068
	BYTE	W12
	BYTE		        Fn4   v092
	BYTE	W12
	BYTE		        Gs3   v056
	BYTE	W12
	BYTE		        Gs3   v068
	BYTE	W12
	BYTE		        As3   v092
	BYTE	W12
	BYTE		        Dn3   v056
	BYTE	W11
// 016   ----------------------------------------
	BYTE	W01
	BYTE		        Dn3   v068
	BYTE	W12
	BYTE		        Fn4   v092
	BYTE	W12
	BYTE		        As3   v056
	BYTE	W12
	BYTE		N05     As3   v068
	BYTE	W12
	BYTE		N04     Cn4   v088
	BYTE	W12
	BYTE		        Ds3   v056
	BYTE	W12
	BYTE		        Ds3   v068
	BYTE	W12
	BYTE		        Fn4   v092
	BYTE	W11
// 017   ----------------------------------------
	BYTE	W01
	BYTE		        Gs3   v056
	BYTE	W12
	BYTE		        Gs3   v068
	BYTE	W12
	BYTE		        As3   v092
	BYTE	W12
	BYTE		        Dn3   v056
	BYTE	W12
	BYTE		        Dn3   v068
	BYTE	W12
	BYTE		        Fn4   v092
	BYTE	W12
	BYTE		        As3   v056
	BYTE	W12
	BYTE		N05     As3   v068
	BYTE	W11
// 018   ----------------------------------------
	BYTE	W01
	BYTE		VOICE   13
	BYTE		PAN     c_v-25
	BYTE	W18
	BYTE		N11     Fn3   v064
	BYTE	W12
	BYTE		N04   
	BYTE	W24
	BYTE		N07   
	BYTE	W12
	BYTE		N01     Fn3   v060
	BYTE	W24
	BYTE		N11     Gn3   v068
	BYTE	W05
// 019   ----------------------------------------
	BYTE	W07
	BYTE		N04     Gn3   v072
	BYTE	W24
	BYTE		N08     Gn3   v064
	BYTE	W12
	BYTE		N01     Gn3   v060
	BYTE	W24
	BYTE		N11     Fn3   v068
	BYTE	W12
	BYTE		N05   
	BYTE	W17
// 020   ----------------------------------------
	BYTE	W07
	BYTE		N10     Fn3   v064
	BYTE	W12
	BYTE		N01     Fn3   v052
	BYTE	W24
	BYTE		N05     Cn3   v084
	BYTE	W06
	BYTE		        Gs3   v064
	BYTE	W06
	BYTE		        Cn3   v072
	BYTE	W06
	BYTE		        Ds3   v084
	BYTE	W06
	BYTE		        Cn3   v064
	BYTE	W06
	BYTE		        Ds3   v072
	BYTE	W06
	BYTE		        Gn3   v084
	BYTE	W06
	BYTE		        Ds3   v064
	BYTE	W06
	BYTE		        Gn3   v072
	BYTE	W05
	BYTE	GoTo
	 POIN2	YuanDelta_4_B1
YuanDelta_4_B2:
// 021   ----------------------------------------
	BYTE	FINE

//**************** Track 5 (Midi-Chn.5) ****************//

YuanDelta_5:
	BYTE	KEYSH   YuanDelta_key+0
// 000   ----------------------------------------
	BYTE		VOICE   62
	BYTE		VOL     63*YuanDelta_mvl/mxv
	BYTE		PAN     c_v+25
	BYTE		N24     Ds2   v092
	BYTE	W36
	BYTE		        En2 
	BYTE	W36
	BYTE		        Fs2 
	BYTE	W24
// 001   ----------------------------------------
	BYTE	W12
	BYTE		        En2 
	BYTE	W36
	BYTE		N48     Ds2 
	BYTE	W48
// 002   ----------------------------------------
	BYTE	W24
	BYTE		N24     Ds3 
	BYTE	W36
	BYTE		        Fn3 
	BYTE	W36
YuanDelta_5_B1:
// 003   ----------------------------------------
	BYTE		N17     Gn3   v092
	BYTE	W12
	BYTE		VOICE   38
	BYTE	W06
	BYTE		N05   
	BYTE	W06
	BYTE		        Gs3   v076
	BYTE	W06
	BYTE		        Gn3   v084
	BYTE	W06
	BYTE		N17     Fn3   v092
	BYTE	W18
	BYTE		        As3   v084
	BYTE	W18
	BYTE		        Gs3   v092
	BYTE	W18
	BYTE		N05   
	BYTE	W06
// 004   ----------------------------------------
	BYTE		        Gn3   v076
	BYTE	W06
	BYTE		        Fn3   v084
	BYTE	W06
	BYTE		N17     Gn3   v092
	BYTE	W18
	BYTE		        Ds3   v084
	BYTE	W18
	BYTE		        Gn3   v092
	BYTE	W18
	BYTE		N05   
	BYTE	W06
	BYTE		        Gs3   v076
	BYTE	W06
	BYTE		        Gn3   v084
	BYTE	W06
	BYTE		N17     Fn3   v092
	BYTE	W12
// 005   ----------------------------------------
YuanDelta_5_005:
	BYTE	W06
	BYTE		N17     Dn3   v084
	BYTE	W18
	BYTE		        Cn3   v092
	BYTE	W18
	BYTE		N05   
	BYTE	W06
	BYTE		        Dn3   v076
	BYTE	W06
	BYTE		        Ds3   v084
	BYTE	W06
	BYTE		N17     Dn3   v092
	BYTE	W18
	BYTE		        Fn3   v084
	BYTE	W18
	BYTE	PEND
// 006   ----------------------------------------
	BYTE		        Gn3   v092
	BYTE	W18
	BYTE		N05   
	BYTE	W06
	BYTE		        Gs3   v076
	BYTE	W06
	BYTE		        Gn3   v084
	BYTE	W06
	BYTE		N17     Fn3   v092
	BYTE	W18
	BYTE		        As3   v084
	BYTE	W18
	BYTE		        Cn4   v092
	BYTE	W18
	BYTE		N05   
	BYTE	W06
// 007   ----------------------------------------
	BYTE		        As3   v076
	BYTE	W06
	BYTE		        Gs3   v084
	BYTE	W06
	BYTE		N17     As3   v092
	BYTE	W18
	BYTE		        Gn3   v084
	BYTE	W18
	BYTE		        Ds3   v092
	BYTE	W18
	BYTE		N05   
	BYTE	W06
	BYTE		        Fn3   v076
	BYTE	W06
	BYTE		        Gn3   v084
	BYTE	W06
	BYTE		N17     Fn3   v092
	BYTE	W12
// 008   ----------------------------------------
	BYTE	PATT
	 POIN2	YuanDelta_5_005
// 009   ----------------------------------------
	BYTE		VOICE   67
	BYTE	W01
	BYTE		N54     Gn3   v092
	BYTE	W60
	BYTE		N04     Cn4   v076
	BYTE	W06
	BYTE		N05     Gn3   v084
	BYTE	W06
	BYTE		N52     Fn3   v092
	BYTE	W23
// 010   ----------------------------------------
	BYTE	W30
	BYTE	W01
	BYTE		N16     Ds3   v084
	BYTE	W18
	BYTE		N44     As3   v092
	BYTE	W44
	BYTE	W01
	BYTE		N07     Cn4   v084
	BYTE	W02
// 011   ----------------------------------------
	BYTE	W07
	BYTE		N08     As3   v092
	BYTE	W09
	BYTE		        Gs3   v080
	BYTE	W09
	BYTE		N52     Gn3   v084
	BYTE	W54
	BYTE		N04     Cn3   v088
	BYTE	W05
	BYTE		N03     Dn3   v076
	BYTE	W04
	BYTE		        Ds3   v068
	BYTE	W05
	BYTE		        Fn3   v072
	BYTE	W03
// 012   ----------------------------------------
	BYTE	W01
	BYTE		N52     Gn3   v092
	BYTE	W54
	BYTE		N08     Ds3 
	BYTE	W12
	BYTE		N05     Gn3   v084
	BYTE	W06
	BYTE		N66     Fn3   v092
	BYTE	W23
// 013   ----------------------------------------
	BYTE	W48
	BYTE	W01
	BYTE		N17     Ds3 
	BYTE	W18
	BYTE		N05     Cn3   v104
	BYTE	W06
	BYTE		        Ds3   v076
	BYTE	W06
	BYTE		        Cn3   v084
	BYTE	W06
	BYTE		N17     Fn3   v092
	BYTE	W11
// 014   ----------------------------------------
	BYTE	W07
	BYTE		N05     Dn3   v104
	BYTE	W06
	BYTE		        Fn3   v076
	BYTE	W06
	BYTE		        Dn3   v084
	BYTE	W06
	BYTE		N17     Gn3   v092
	BYTE	W18
	BYTE		N05     Ds3   v104
	BYTE	W06
	BYTE		        Gn3   v076
	BYTE	W06
	BYTE		        Ds3   v084
	BYTE	W06
	BYTE		N17     Gs3   v092
	BYTE	W18
	BYTE		N05     En3   v104
	BYTE	W06
	BYTE		        Gs3   v076
	BYTE	W06
	BYTE		        En3   v084
	BYTE	W05
// 015   ----------------------------------------
	BYTE	W01
	BYTE		VOICE   91
	BYTE		PAN     c_v-25
	BYTE		N32     Gn3   v080
	BYTE	W36
	BYTE		        Cn3   v076
	BYTE	W36
	BYTE		        Fn3   v096
	BYTE	W23
// 016   ----------------------------------------
	BYTE	W13
	BYTE		        Dn3   v080
	BYTE	W36
	BYTE		        Gn3 
	BYTE	W36
	BYTE		        Cn3   v076
	BYTE	W11
// 017   ----------------------------------------
	BYTE	W24
	BYTE	W01
	BYTE		        Fn3   v092
	BYTE	W36
	BYTE		        Dn3   v088
	BYTE	W32
	BYTE	W03
// 018   ----------------------------------------
	BYTE	W01
	BYTE		N68     Dn3   v076
	BYTE	W72
	BYTE		        Ds3 
	BYTE	W23
// 019   ----------------------------------------
	BYTE	W48
	BYTE	W01
	BYTE		        Dn3 
	BYTE	W44
	BYTE	W03
// 020   ----------------------------------------
	BYTE	W24
	BYTE	W01
	BYTE		        Ds3   v092
	BYTE	W68
	BYTE	W03
	BYTE	GoTo
	 POIN2	YuanDelta_5_B1
YuanDelta_5_B2:
// 021   ----------------------------------------
	BYTE	FINE

//**************** Track 6 (Midi-Chn.6) ****************//

YuanDelta_6:
	BYTE	KEYSH   YuanDelta_key+0
// 000   ----------------------------------------
	BYTE		VOICE   38
	BYTE		VOL     63*YuanDelta_mvl/mxv
	BYTE		PAN     c_v-25
	BYTE		N24     As1   v084
	BYTE	W36
	BYTE		        Bn1 
	BYTE	W36
	BYTE		        Cs2 
	BYTE	W24
// 001   ----------------------------------------
	BYTE	W12
	BYTE		        Bn1 
	BYTE	W36
	BYTE		N48     As1 
	BYTE	W48
// 002   ----------------------------------------
	BYTE	W24
	BYTE		N24     As2 
	BYTE	W36
	BYTE		        Cs3 
	BYTE	W36
YuanDelta_6_B1:
// 003   ----------------------------------------
	BYTE		N17     Ds3   v084
	BYTE	W18
	BYTE		N05     Ds3   v072
	BYTE	W06
	BYTE		        Fn3   v076
	BYTE	W06
	BYTE		        Ds3   v084
	BYTE	W06
	BYTE		N17     Dn3 
	BYTE	W18
	BYTE		        Fn3   v076
	BYTE	W18
	BYTE		        Cn3   v084
	BYTE	W18
	BYTE		N05   
	BYTE	W06
// 004   ----------------------------------------
	BYTE		        As2   v072
	BYTE	W06
	BYTE		        Cn3   v076
	BYTE	W06
	BYTE		N17     Ds3   v084
	BYTE	W18
	BYTE		        As2   v076
	BYTE	W18
	BYTE		        Ds3   v084
	BYTE	W18
	BYTE		N05   
	BYTE	W06
	BYTE		        Fn3   v072
	BYTE	W06
	BYTE		        Ds3   v076
	BYTE	W06
	BYTE		N17     Dn3   v084
	BYTE	W12
// 005   ----------------------------------------
YuanDelta_6_005:
	BYTE	W06
	BYTE		N17     As2   v076
	BYTE	W18
	BYTE		        Gs2   v084
	BYTE	W18
	BYTE		N05   
	BYTE	W06
	BYTE		        As2   v072
	BYTE	W06
	BYTE		        Cn3   v076
	BYTE	W06
	BYTE		N17     As2   v084
	BYTE	W18
	BYTE		        Dn3   v076
	BYTE	W18
	BYTE	PEND
// 006   ----------------------------------------
	BYTE		        Ds3   v084
	BYTE	W18
	BYTE		N05   
	BYTE	W06
	BYTE		        Fn3   v072
	BYTE	W06
	BYTE		        Ds3   v076
	BYTE	W06
	BYTE		N17     Dn3   v084
	BYTE	W18
	BYTE		        Fn3   v076
	BYTE	W18
	BYTE		        Gs3   v084
	BYTE	W18
	BYTE		N05   
	BYTE	W06
// 007   ----------------------------------------
	BYTE		        Gn3   v072
	BYTE	W06
	BYTE		        Fn3   v076
	BYTE	W06
	BYTE		N17     Gn3   v084
	BYTE	W18
	BYTE		        Ds3   v076
	BYTE	W18
	BYTE		        As2   v084
	BYTE	W18
	BYTE		N05     Cn3 
	BYTE	W06
	BYTE		        Dn3   v072
	BYTE	W06
	BYTE		        Ds3   v076
	BYTE	W06
	BYTE		N17     Dn3   v084
	BYTE	W12
// 008   ----------------------------------------
	BYTE	PATT
	 POIN2	YuanDelta_6_005
// 009   ----------------------------------------
	BYTE	W19
	BYTE		VOICE   15
	BYTE		PAN     c_v-25
	BYTE		N11     Gn3   v064
	BYTE	W12
	BYTE		N02     Gn3   v068
	BYTE	W24
	BYTE		N07     Gn3   v064
	BYTE	W12
	BYTE		N01     Gn3   v056
	BYTE	W24
	BYTE		N11     Fn3   v072
	BYTE	W05
// 010   ----------------------------------------
	BYTE	W07
	BYTE		N03     Fn3   v064
	BYTE	W24
	BYTE		N07   
	BYTE	W12
	BYTE		N01     Fn3   v052
	BYTE	W24
	BYTE		N11     Fn3   v064
	BYTE	W12
	BYTE		N02     Fn3   v072
	BYTE	W17
// 011   ----------------------------------------
	BYTE	W07
	BYTE		N11     Fn3   v064
	BYTE	W12
	BYTE		N01     Fn3   v056
	BYTE	W24
	BYTE		N11     Gn3   v076
	BYTE	W12
	BYTE		N01   
	BYTE	W24
	BYTE		N11     Fn3   v072
	BYTE	W12
	BYTE		N01     Fn3   v076
	BYTE	W05
// 012   ----------------------------------------
	BYTE	W19
	BYTE		N11     Gn3   v072
	BYTE	W12
	BYTE		N02     Gn3   v068
	BYTE	W24
	BYTE		N07     Gn3   v064
	BYTE	W12
	BYTE		N01     Gn3   v060
	BYTE	W24
	BYTE		N11     Fn3   v064
	BYTE	W05
// 013   ----------------------------------------
	BYTE	W07
	BYTE		N02   
	BYTE	W24
	BYTE		N08     Fn3   v072
	BYTE	W12
	BYTE		N01     Fn3   v060
	BYTE	W06
	BYTE		VOICE   38
	BYTE		PAN     c_v-34
	BYTE		N32     Gs2 
	BYTE	W36
	BYTE		        As2   v056
	BYTE	W11
// 014   ----------------------------------------
	BYTE	W24
	BYTE	W01
	BYTE		        Cn3   v060
	BYTE	W36
	BYTE		        Cs3   v064
	BYTE	W32
	BYTE	W03
// 015   ----------------------------------------
	BYTE	W01
	BYTE		        Ds2   v076
	BYTE	W36
	BYTE		        Gs1   v068
	BYTE	W36
	BYTE		        Dn2   v080
	BYTE	W23
// 016   ----------------------------------------
	BYTE	W13
	BYTE		        As1   v076
	BYTE	W36
	BYTE		        Ds2 
	BYTE	W36
	BYTE		        Gs1   v068
	BYTE	W11
// 017   ----------------------------------------
	BYTE	W24
	BYTE	W01
	BYTE		        Dn2   v076
	BYTE	W36
	BYTE		        As1   v080
	BYTE	W32
	BYTE	W03
// 018   ----------------------------------------
	BYTE	W01
	BYTE		        As1   v072
	BYTE	W36
	BYTE		        Fn1   v092
	BYTE	W36
	BYTE		N52     Cn2   v072
	BYTE	W23
// 019   ----------------------------------------
	BYTE	W44
	BYTE		N04     Cn2   v088
	BYTE	W05
	BYTE		N32     As1   v072
	BYTE	W36
	BYTE		        Fn1   v092
	BYTE	W11
// 020   ----------------------------------------
	BYTE	W24
	BYTE	W01
	BYTE		N68     Cn2   v084
	BYTE	W68
	BYTE	W03
	BYTE	GoTo
	 POIN2	YuanDelta_6_B1
YuanDelta_6_B2:
// 021   ----------------------------------------
	BYTE	FINE

//**************** Track 7 (Midi-Chn.7) ****************//

YuanDelta_7:
	BYTE	KEYSH   YuanDelta_key+0
// 000   ----------------------------------------
	BYTE		VOICE   36
	BYTE		VOL     63*YuanDelta_mvl/mxv
	BYTE		PAN     c_v+0
	BYTE		N02     Ds1   v092
	BYTE	W06
	BYTE		N03     Ds1   v076
	BYTE	W06
	BYTE		N02     Ds1   v084
	BYTE	W06
	BYTE		        Ds1   v092
	BYTE	W06
	BYTE		N03     Ds1   v076
	BYTE	W06
	BYTE		N02     Ds1   v084
	BYTE	W06
	BYTE		        Ds1   v092
	BYTE	W06
	BYTE		N03     Ds1   v076
	BYTE	W06
	BYTE		N02     Ds1   v084
	BYTE	W06
	BYTE		        Ds1   v092
	BYTE	W06
	BYTE		N03     Ds1   v076
	BYTE	W06
	BYTE		N02     Ds1   v084
	BYTE	W06
	BYTE		        Ds1   v092
	BYTE	W06
	BYTE		N03     Ds1   v076
	BYTE	W06
	BYTE		N02     Ds1   v084
	BYTE	W06
	BYTE		        Ds1   v092
	BYTE	W06
// 001   ----------------------------------------
	BYTE		N03     Ds1   v076
	BYTE	W06
	BYTE		N02     Ds1   v084
	BYTE	W06
	BYTE		        Ds1   v092
	BYTE	W06
	BYTE		N03     Ds1   v076
	BYTE	W06
	BYTE		N02     Ds1   v084
	BYTE	W06
	BYTE		        Ds1   v092
	BYTE	W06
	BYTE		N03     Ds1   v076
	BYTE	W06
	BYTE		N02     Ds1   v084
	BYTE	W06
	BYTE		        Ds1   v092
	BYTE	W06
	BYTE		N03     Ds1   v076
	BYTE	W06
	BYTE		N02     Ds1   v084
	BYTE	W06
	BYTE		        Ds1   v092
	BYTE	W06
	BYTE		N03     Ds1   v076
	BYTE	W06
	BYTE		N02     Ds1   v084
	BYTE	W06
	BYTE		        Ds1   v096
	BYTE	W06
	BYTE		N03     Ds1   v084
	BYTE	W06
// 002   ----------------------------------------
	BYTE		N04     Ds1   v096
	BYTE	W24
	BYTE		VOICE   36
	BYTE		PAN     c_v+0
	BYTE		N17     Bn2   v104
	BYTE	W18
	BYTE		N04   
	BYTE	W06
	BYTE		N05     Ds3   v092
	BYTE	W06
	BYTE		N04     Fs3   v096
	BYTE	W06
	BYTE		N17     Cs3   v104
	BYTE	W18
	BYTE		N04   
	BYTE	W06
	BYTE		N05     Gs3   v092
	BYTE	W06
	BYTE		N04     Cs3   v096
	BYTE	W06
YuanDelta_7_B1:
// 003   ----------------------------------------
	BYTE		N05     Ds3   v104
	BYTE	W18
	BYTE		        As2   v096
	BYTE	W18
	BYTE		N04     Ds3   v104
	BYTE	W06
	BYTE		N05     As3   v084
	BYTE	W06
	BYTE		N04     Ds3   v096
	BYTE	W06
	BYTE		N05     As2   v104
	BYTE	W18
	BYTE		N04   
	BYTE	W06
	BYTE		N05     Ds3   v084
	BYTE	W06
	BYTE		        As2   v096
	BYTE	W06
	BYTE		N04     As2   v104
	BYTE	W06
// 004   ----------------------------------------
	BYTE		N05     Ds3   v092
	BYTE	W06
	BYTE		N04     As2   v096
	BYTE	W06
	BYTE		N05     Ds3   v104
	BYTE	W18
	BYTE		        As2   v096
	BYTE	W18
	BYTE		        Ds3   v104
	BYTE	W18
	BYTE		N04     As2 
	BYTE	W06
	BYTE		N05     As2   v096
	BYTE	W06
	BYTE		N05   
	BYTE	W06
	BYTE		        Ds3   v104
	BYTE	W12
// 005   ----------------------------------------
	BYTE	W06
	BYTE		        As2 
	BYTE	W18
	BYTE		        Ds3 
	BYTE	W18
	BYTE		N04     Ds3   v096
	BYTE	W06
	BYTE		N05     Fn3   v084
	BYTE	W06
	BYTE		        Gn3   v092
	BYTE	W06
	BYTE		N04     Fn3   v104
	BYTE	W06
	BYTE		N02     Ds3   v092
	BYTE	W06
	BYTE		N05     Dn3   v096
	BYTE	W06
	BYTE		        As2   v104
	BYTE	W18
// 006   ----------------------------------------
	BYTE		N02     Ds2   v092
	BYTE	W06
	BYTE		        As2   v116
	BYTE	W06
	BYTE		N05     Ds2   v092
	BYTE	W06
	BYTE		        Ds2   v104
	BYTE	W18
	BYTE		N02     Ds2   v092
	BYTE	W06
	BYTE		        As2   v116
	BYTE	W06
	BYTE		N05     Ds2   v092
	BYTE	W06
	BYTE		        Ds2   v104
	BYTE	W18
	BYTE		N03     Gs2   v108
	BYTE	W12
	BYTE		N04     Gs2   v084
	BYTE	W06
	BYTE		        Gs2   v104
	BYTE	W06
// 007   ----------------------------------------
	BYTE		N05     As2   v092
	BYTE	W06
	BYTE		        Cn3   v096
	BYTE	W06
	BYTE		N04     Ds2   v104
	BYTE	W06
	BYTE		N05     Ds2   v084
	BYTE	W06
	BYTE		N04     Ds2   v096
	BYTE	W06
	BYTE		        Gn2   v116
	BYTE	W18
	BYTE		N05     Gs2   v104
	BYTE	W18
	BYTE		N04     Gs2   v096
	BYTE	W06
	BYTE		N05     Gs2   v084
	BYTE	W06
	BYTE		        Gs2   v092
	BYTE	W06
	BYTE		N04     Gn2   v104
	BYTE	W06
	BYTE		N05     Gn2   v092
	BYTE	W06
// 008   ----------------------------------------
	BYTE		        Gn2   v096
	BYTE	W06
	BYTE		N03     Gn3   v116
	BYTE	W18
	BYTE		N04     Gs2   v104
	BYTE	W06
	BYTE		N05     Gs2   v092
	BYTE	W06
	BYTE		N04     Gs2   v096
	BYTE	W06
	BYTE		        Gs2   v104
	BYTE	W06
	BYTE		N05     As2   v092
	BYTE	W06
	BYTE		        Cn3   v096
	BYTE	W06
	BYTE		        As2   v104
	BYTE	W18
	BYTE		N07     As2   v108
	BYTE	W18
// 009   ----------------------------------------
	BYTE	W01
	BYTE		VOICE   4
	BYTE		PAN     c_v+0
	BYTE		N08     Gs2   v104
	BYTE	W18
	BYTE		N09     Gs2   v096
	BYTE	W18
	BYTE		N08     Gs2   v100
	BYTE	W18
	BYTE		        Gs2   v096
	BYTE	W18
	BYTE		        Gs2   v104
	BYTE	W18
	BYTE		N09     Gs2   v096
	BYTE	W05
// 010   ----------------------------------------
	BYTE	W13
	BYTE		N08     Gs2   v100
	BYTE	W18
	BYTE		N09     Gs2   v096
	BYTE	W18
	BYTE		N08     Gn2   v100
	BYTE	W18
	BYTE		        Gn2   v096
	BYTE	W18
	BYTE		        Gn2   v104
	BYTE	W11
// 011   ----------------------------------------
	BYTE	W07
	BYTE		N09     Gn2   v096
	BYTE	W18
	BYTE		N04     Cn3   v108
	BYTE	W06
	BYTE		N05     Cn3   v084
	BYTE	W06
	BYTE		        Cn3   v096
	BYTE	W06
	BYTE		N04     Cn3   v104
	BYTE	W06
	BYTE		N05     Cn3   v084
	BYTE	W06
	BYTE		        Cn3   v096
	BYTE	W06
	BYTE		N04     As2   v104
	BYTE	W06
	BYTE		N05     As2   v084
	BYTE	W06
	BYTE		        As2   v096
	BYTE	W06
	BYTE		N04     As2   v104
	BYTE	W06
	BYTE		N05     As2   v084
	BYTE	W06
	BYTE		        As2   v096
	BYTE	W05
// 012   ----------------------------------------
	BYTE	W01
	BYTE		N08     Gs2   v104
	BYTE	W18
	BYTE		N09     Gs2   v096
	BYTE	W18
	BYTE		N08     Gs2   v104
	BYTE	W18
	BYTE		N09     Gs2   v096
	BYTE	W18
	BYTE		N08     Gs2   v100
	BYTE	W18
	BYTE		N09     Gs2   v096
	BYTE	W05
// 013   ----------------------------------------
	BYTE	W13
	BYTE		N08     Gs2   v104
	BYTE	W18
	BYTE		N09     Gs2   v100
	BYTE	W18
	BYTE		N04     Fn2   v104
	BYTE	W06
	BYTE		N05     Fn2   v092
	BYTE	W06
	BYTE		        Fn2   v096
	BYTE	W06
	BYTE		N04     Fn2   v104
	BYTE	W06
	BYTE		N05     Fn2   v084
	BYTE	W06
	BYTE		        Fn2   v096
	BYTE	W06
	BYTE		N04     Gn2   v104
	BYTE	W06
	BYTE		N05     Gn2   v092
	BYTE	W05
// 014   ----------------------------------------
	BYTE	W01
	BYTE		        Gn2   v096
	BYTE	W06
	BYTE		N04     Gn2   v104
	BYTE	W06
	BYTE		N05     Gn2   v084
	BYTE	W06
	BYTE		        Gn2   v096
	BYTE	W06
	BYTE		N04     Gs2   v104
	BYTE	W06
	BYTE		N05     Gs2   v092
	BYTE	W06
	BYTE		        Gs2   v096
	BYTE	W06
	BYTE		N04     Gs2   v104
	BYTE	W06
	BYTE		N05     Gs2   v084
	BYTE	W06
	BYTE		        Gs2   v096
	BYTE	W06
	BYTE		N04     An2   v104
	BYTE	W06
	BYTE		N05     An2   v092
	BYTE	W06
	BYTE		        An2   v096
	BYTE	W06
	BYTE		N04     An2   v104
	BYTE	W06
	BYTE		N05     An2   v084
	BYTE	W06
	BYTE		        An2   v096
	BYTE	W05
// 015   ----------------------------------------
	BYTE	W01
	BYTE		N52     As3   v092
	BYTE	W54
	BYTE		N04     Fn3   v096
	BYTE	W06
	BYTE		N05     As3   v076
	BYTE	W06
	BYTE		        Fn3   v084
	BYTE	W06
	BYTE		N52     As2   v092
	BYTE	W23
// 016   ----------------------------------------
	BYTE	W30
	BYTE	W01
	BYTE		N04     As3   v096
	BYTE	W06
	BYTE		N05     Fn3   v076
	BYTE	W06
	BYTE		        As2   v080
	BYTE	W06
	BYTE		N52     As3   v092
	BYTE	W44
	BYTE	W03
// 017   ----------------------------------------
	BYTE	W07
	BYTE		N08     Cn4   v084
	BYTE	W14
	BYTE		N03     Dn4   v080
	BYTE	W04
	BYTE		N32     As3   v076
	BYTE	W36
	BYTE		        As2   v088
	BYTE	W32
	BYTE	W03
// 018   ----------------------------------------
	BYTE	W01
	BYTE		N08     Gn2   v096
	BYTE	W18
	BYTE		N04     Gn2   v104
	BYTE	W06
	BYTE		N05     Gn2   v084
	BYTE	W06
	BYTE		        Gn2   v092
	BYTE	W06
	BYTE		N07     Gn2   v096
	BYTE	W18
	BYTE		N13     Gn2   v092
	BYTE	W18
	BYTE		N08     Gs2 
	BYTE	W18
	BYTE		N04     Gs2   v096
	BYTE	W05
// 019   ----------------------------------------
	BYTE	W01
	BYTE		N05     Gs2   v076
	BYTE	W06
	BYTE		        Gs2   v084
	BYTE	W06
	BYTE		N08     Gs2   v092
	BYTE	W18
	BYTE		N07     Gs2   v096
	BYTE	W12
	BYTE		N04     Gs2   v084
	BYTE	W06
	BYTE		N08     Gn2   v096
	BYTE	W18
	BYTE		N04     Gn2   v104
	BYTE	W06
	BYTE		N05     Gn2   v084
	BYTE	W06
	BYTE		        Gn2   v092
	BYTE	W06
	BYTE		N07     Gn2   v096
	BYTE	W11
// 020   ----------------------------------------
	BYTE	W07
	BYTE		N13     Gn2   v092
	BYTE	W18
	BYTE		N08     Gs2 
	BYTE	W18
	BYTE		N04     Gs2   v096
	BYTE	W06
	BYTE		N05     Gs2   v076
	BYTE	W06
	BYTE		        Gs2   v084
	BYTE	W06
	BYTE		N08     Gs2   v092
	BYTE	W18
	BYTE		N07     Gs2   v096
	BYTE	W12
	BYTE		N04     Gs2   v084
	BYTE	W05
	BYTE	GoTo
	 POIN2	YuanDelta_7_B1
YuanDelta_7_B2:
// 021   ----------------------------------------
	BYTE		VOICE   36
	BYTE	FINE

//**************** Track 8 (Midi-Chn.9) ****************//

YuanDelta_8:
	BYTE	KEYSH   YuanDelta_key+0
// 000   ----------------------------------------
	BYTE		VOICE   127
	BYTE		VOL     63*YuanDelta_mvl/mxv
	BYTE		N17     Cn1   v092
	BYTE	W18
	BYTE		        Cs1   v076
	BYTE	W18
	BYTE		        Cn1   v092
	BYTE	W18
	BYTE		        Cs1   v068
	BYTE	W18
	BYTE		        Cn1   v092
	BYTE	W18
	BYTE		        Cs1   v072
	BYTE	W06
// 001   ----------------------------------------
	BYTE	W12
	BYTE		        Cn1   v092
	BYTE	W18
	BYTE		        Cs1   v068
	BYTE	W18
	BYTE		N05     Cn1   v108
	BYTE		N17     Cs1   v092
	BYTE	W06
	BYTE		N05     Cn1   v084
	BYTE	W06
	BYTE		        Cn1   v092
	BYTE	W06
	BYTE		        Cn1   v104
	BYTE		N17     Cs1   v084
	BYTE	W06
	BYTE		N05     Cn1   v080
	BYTE	W06
	BYTE		        Cn1   v072
	BYTE	W06
	BYTE		        Cn1   v108
	BYTE		N32     Cs1   v092
	BYTE	W06
	BYTE		N05     Cn1   v104
	BYTE	W06
// 002   ----------------------------------------
	BYTE		N23     Cn1   v112
	BYTE	W24
	BYTE		N17     Cs1   v092
	BYTE		N05     Dn1   v084
	BYTE	W06
	BYTE		        Dn1   v072
	BYTE	W06
	BYTE		        Dn1   v076
	BYTE	W06
	BYTE		        Cn1   v112
	BYTE		N05     Dn1   v072
	BYTE	W06
	BYTE		        Cs1   v084
	BYTE		N05     Dn1   v060
	BYTE	W06
	BYTE		        Cs1   v076
	BYTE		N05     Dn1   v064
	BYTE	W06
	BYTE		N17     Cs1   v096
	BYTE		N05     Dn1   v084
	BYTE	W06
	BYTE		        Dn1   v072
	BYTE	W06
	BYTE		        Dn1   v076
	BYTE	W06
	BYTE		        Cn1   v116
	BYTE		N05     Dn1   v072
	BYTE	W06
	BYTE		        Cs1   v084
	BYTE		N05     Dn1   v060
	BYTE	W06
	BYTE		        Cs1   v072
	BYTE		N05     Dn1   v064
	BYTE	W06
YuanDelta_8_B1:
// 003   ----------------------------------------
	BYTE		N17     Cs1   v092
	BYTE		N17     Dn1   v076
	BYTE	W18
	BYTE		        Cs1   v084
	BYTE		N17     Dn1   v072
	BYTE	W18
	BYTE		        Cs1   v084
	BYTE		N05     Dn1 
	BYTE	W06
	BYTE		        Dn1   v060
	BYTE	W06
	BYTE		        Ds1   v064
	BYTE	W06
	BYTE		N17     Cn1   v104
	BYTE		N11     Cs1   v076
	BYTE	W18
	BYTE		N17     Cs1   v092
	BYTE		N17     Dn1   v080
	BYTE	W18
	BYTE		        Cs1   v076
	BYTE		N11     Dn1   v072
	BYTE	W06
// 004   ----------------------------------------
	BYTE	W06
	BYTE		N05     Dn1   v064
	BYTE	W06
	BYTE		N17     Cs1   v084
	BYTE		N05     Dn1 
	BYTE	W06
	BYTE		        Dn1   v056
	BYTE	W06
	BYTE		        Ds1   v068
	BYTE	W06
	BYTE		N17     Cn1   v108
	BYTE		N11     Cs1   v080
	BYTE	W18
	BYTE		N17     Cs1   v092
	BYTE		N17     Dn1   v076
	BYTE	W18
	BYTE		        Cs1   v084
	BYTE		N17     Dn1   v072
	BYTE	W18
	BYTE		        Cs1   v084
	BYTE		N05     Dn1 
	BYTE	W06
	BYTE		        Dn1   v060
	BYTE	W06
// 005   ----------------------------------------
	BYTE		        Ds1   v064
	BYTE	W06
	BYTE		N17     Cn1   v104
	BYTE		N11     Cs1   v076
	BYTE	W12
	BYTE		N05     Dn1   v060
	BYTE	W06
	BYTE		N17     Cs1   v092
	BYTE		N17     Dn1   v080
	BYTE	W18
	BYTE		        Cs1   v076
	BYTE		N11     Dn1   v072
	BYTE	W12
	BYTE		N05     Dn1   v064
	BYTE	W06
	BYTE		N17     Cs1   v084
	BYTE		N05     Dn1 
	BYTE	W06
	BYTE		        Dn1   v056
	BYTE	W06
	BYTE		        Ds1   v068
	BYTE	W06
	BYTE		N17     Cn1   v108
	BYTE		N11     Cs1   v080
	BYTE	W18
// 006   ----------------------------------------
	BYTE		N17     Cs1   v092
	BYTE		N17     Dn1   v076
	BYTE	W18
	BYTE		        Cs1 
	BYTE		N17     Dn1   v072
	BYTE	W18
	BYTE		        Cs1   v084
	BYTE		N05     Dn1 
	BYTE	W06
	BYTE		        Dn1   v060
	BYTE	W06
	BYTE		        Ds1   v064
	BYTE	W06
	BYTE		N17     Cn1   v108
	BYTE		N11     Cs1   v076
	BYTE	W18
	BYTE		N17     Cs1   v092
	BYTE		N17     Dn1   v080
	BYTE	W18
	BYTE		        Cs1   v084
	BYTE		N11     Dn1   v072
	BYTE	W06
// 007   ----------------------------------------
	BYTE	W06
	BYTE		N05     Dn1   v064
	BYTE	W06
	BYTE		N17     Cs1   v084
	BYTE		N05     Dn1 
	BYTE	W06
	BYTE		        Dn1   v056
	BYTE	W06
	BYTE		        Ds1   v068
	BYTE	W06
	BYTE		N17     Cn1   v104
	BYTE		N11     Cs1   v080
	BYTE	W12
	BYTE		N05     Dn1   v064
	BYTE	W06
	BYTE		N17     Cs1   v092
	BYTE		N17     Dn1   v076
	BYTE	W18
	BYTE		        Cs1   v084
	BYTE		N17     Dn1   v072
	BYTE	W18
	BYTE		        Cs1   v084
	BYTE		N05     Dn1 
	BYTE	W06
	BYTE		        Dn1   v060
	BYTE	W06
// 008   ----------------------------------------
	BYTE		        Ds1   v064
	BYTE	W06
	BYTE		N17     Cn1   v104
	BYTE		N11     Cs1   v076
	BYTE	W12
	BYTE		N05     Dn1   v060
	BYTE	W06
	BYTE		N17     Cs1   v092
	BYTE		N17     Dn1   v084
	BYTE	W18
	BYTE		        Cn1   v104
	BYTE		N11     Dn1   v092
	BYTE	W12
	BYTE		N05     Dn1   v064
	BYTE	W06
	BYTE		N11     Cs1   v092
	BYTE		N17     Dn1   v076
	BYTE	W12
	BYTE		N05     Cs1   v072
	BYTE	W06
	BYTE		N17     Cn1   v108
	BYTE		N11     Dn1   v092
	BYTE	W12
	BYTE		N05     Ds1   v064
	BYTE	W06
// 009   ----------------------------------------
YuanDelta_8_009:
	BYTE	W01
	BYTE		N17     Cs1   v092
	BYTE	W18
	BYTE		        Cn1   v112
	BYTE	W18
	BYTE		N11     Cs1   v092
	BYTE	W12
	BYTE		N05     Cs1   v072
	BYTE	W06
	BYTE		N17     Cn1   v108
	BYTE	W18
	BYTE		        Cs1   v092
	BYTE	W18
	BYTE		        Cn1   v112
	BYTE	W05
	BYTE	PEND
// 010   ----------------------------------------
	BYTE	W13
	BYTE		N11     Cs1   v092
	BYTE	W12
	BYTE		N05     Cs1   v072
	BYTE	W06
	BYTE		N17     Cn1   v108
	BYTE	W12
	BYTE		N05     Ds1   v072
	BYTE	W06
	BYTE		N17     Cs1   v092
	BYTE	W18
	BYTE		        Cn1   v112
	BYTE	W18
	BYTE		N11     Cs1   v092
	BYTE	W11
// 011   ----------------------------------------
	BYTE	W01
	BYTE		N05     Cs1   v072
	BYTE	W06
	BYTE		N17     Cn1   v108
	BYTE	W18
	BYTE		N05   
	BYTE	W06
	BYTE		        Cn1   v096
	BYTE	W06
	BYTE		        Cn1   v104
	BYTE	W06
	BYTE		N05   
	BYTE	W06
	BYTE		        Cn1   v088
	BYTE	W06
	BYTE		        Cn1   v100
	BYTE	W06
	BYTE		        Cn1   v112
	BYTE	W06
	BYTE		        Cn1   v092
	BYTE	W06
	BYTE		        Cn1   v100
	BYTE	W06
	BYTE		        Cn1   v104
	BYTE	W06
	BYTE		        Cn1   v092
	BYTE	W06
	BYTE		        Cn1   v100
	BYTE	W05
// 012   ----------------------------------------
	BYTE	PATT
	 POIN2	YuanDelta_8_009
// 013   ----------------------------------------
	BYTE	W13
	BYTE		N11     Cs1   v092
	BYTE	W12
	BYTE		N05     Cs1   v072
	BYTE	W06
	BYTE		N11     Cn1   v104
	BYTE	W12
	BYTE		N05     Cs1   v084
	BYTE		N05     Dn1   v072
	BYTE	W06
	BYTE		N11     Cs1   v096
	BYTE		N11     Dn1   v076
	BYTE	W12
	BYTE		N05     Cs1   v056
	BYTE		N05     Dn1   v064
	BYTE	W06
	BYTE		N11     Cn1   v108
	BYTE		N05     Dn1   v092
	BYTE	W06
	BYTE		        Cs1   v084
	BYTE	W06
	BYTE		        Cs1   v072
	BYTE		N05     Dn1   v060
	BYTE	W06
	BYTE		N11     Cs1   v100
	BYTE		N11     Dn1   v076
	BYTE	W11
// 014   ----------------------------------------
	BYTE	W01
	BYTE		N05     Cs1 
	BYTE		N05     Dn1   v064
	BYTE	W06
	BYTE		N11     Cn1   v112
	BYTE		N05     Dn1   v084
	BYTE	W06
	BYTE		        Cs1   v088
	BYTE	W06
	BYTE		        Cs1   v072
	BYTE		N05     Dn1   v060
	BYTE	W06
	BYTE		N11     Cs1   v096
	BYTE		N11     Dn1   v076
	BYTE	W12
	BYTE		N05     Cs1   v060
	BYTE		N05     Dn1   v064
	BYTE	W06
	BYTE		N11     Cn1   v108
	BYTE		N05     Dn1   v092
	BYTE	W06
	BYTE		        Cs1   v084
	BYTE	W06
	BYTE		        Cs1   v076
	BYTE		N05     Dn1   v060
	BYTE	W06
	BYTE		N11     Cs1   v096
	BYTE		N11     Dn1   v076
	BYTE	W12
	BYTE		N05     Cs1   v080
	BYTE		N05     Dn1   v064
	BYTE	W06
	BYTE		N11     Cn1   v120
	BYTE		N05     Dn1   v084
	BYTE	W06
	BYTE		        Cs1 
	BYTE	W06
	BYTE		        Cs1   v072
	BYTE		N05     Dn1 
	BYTE	W05
// 015   ----------------------------------------
	BYTE	W01
	BYTE		N17     Cs1   v088
	BYTE		N17     Dn1   v080
	BYTE	W18
	BYTE		        Cs1   v076
	BYTE		N17     Dn1   v072
	BYTE	W18
	BYTE		        Cs1   v080
	BYTE		N05     Dn1   v084
	BYTE	W06
	BYTE		        Dn1   v060
	BYTE	W06
	BYTE		N17     Dn1   v068
	BYTE	W06
	BYTE		        Cn1   v104
	BYTE		N17     Cs1   v080
	BYTE	W12
	BYTE		N05     Dn1   v060
	BYTE	W06
	BYTE		N17     Cs1   v080
	BYTE		N17     Dn1   v076
	BYTE	W18
	BYTE		        Cs1 
	BYTE		N11     Dn1   v072
	BYTE	W05
// 016   ----------------------------------------
	BYTE	W07
	BYTE		N05     Dn1   v064
	BYTE	W06
	BYTE		N17     Cs1   v084
	BYTE		N05     Dn1 
	BYTE	W06
	BYTE		        Dn1   v060
	BYTE	W06
	BYTE		        Dn1   v072
	BYTE	W06
	BYTE		N17     Cn1   v100
	BYTE		N17     Cs1   v080
	BYTE		N17     Dn1   v076
	BYTE	W18
	BYTE		        Cs1   v084
	BYTE		N17     Dn1   v080
	BYTE	W18
	BYTE		        Cs1   v076
	BYTE		N17     Dn1   v068
	BYTE	W18
	BYTE		        Cs1   v084
	BYTE		N05     Dn1 
	BYTE	W06
	BYTE		        Dn1   v056
	BYTE	W05
// 017   ----------------------------------------
	BYTE	W01
	BYTE		N17     Dn1   v068
	BYTE	W06
	BYTE		        Cn1   v104
	BYTE		N17     Cs1   v084
	BYTE	W12
	BYTE		N05     Dn1   v056
	BYTE	W06
	BYTE		N17     Cs1   v084
	BYTE		N17     Dn1   v080
	BYTE	W18
	BYTE		        Cs1 
	BYTE		N11     Dn1   v068
	BYTE	W12
	BYTE		N05   
	BYTE	W06
	BYTE		N11     Cs1   v084
	BYTE		N05     Dn1 
	BYTE	W06
	BYTE		        Dn1   v060
	BYTE	W06
	BYTE		        Cs1   v072
	BYTE		N05     Dn1   v064
	BYTE	W06
	BYTE		N17     Cn1   v108
	BYTE		N17     Dn1   v088
	BYTE	W17
// 018   ----------------------------------------
	BYTE	W01
	BYTE		        Cs1   v092
	BYTE		N11     Dn1   v076
	BYTE	W12
	BYTE		N05     Dn1   v060
	BYTE	W06
	BYTE		N17     Cn1   v104
	BYTE		N11     Dn1   v092
	BYTE	W12
	BYTE		N05     Dn1   v064
	BYTE	W06
	BYTE		N11     Cs1   v088
	BYTE		N11     Dn1   v076
	BYTE	W12
	BYTE		N05     Cs1   v072
	BYTE		N05     Dn1   v060
	BYTE	W06
	BYTE		N17     Cn1   v108
	BYTE		N11     Dn1   v084
	BYTE	W12
	BYTE		N05     Dn1   v060
	BYTE	W06
	BYTE		N17     Cs1   v092
	BYTE		N11     Dn1   v080
	BYTE	W12
	BYTE		N05     Dn1   v056
	BYTE	W06
	BYTE		N17     Cn1   v108
	BYTE		N11     Dn1   v088
	BYTE	W05
// 019   ----------------------------------------
	BYTE	W07
	BYTE		N05     Dn1   v060
	BYTE	W06
	BYTE		N11     Cs1   v088
	BYTE		N11     Dn1   v076
	BYTE	W12
	BYTE		N05     Cs1   v072
	BYTE		N05     Dn1   v064
	BYTE	W06
	BYTE		N11     Cn1   v104
	BYTE		N11     Dn1   v084
	BYTE	W12
	BYTE		N05     Cn1   v088
	BYTE		N05     Dn1   v072
	BYTE	W06
	BYTE		N17     Cs1   v092
	BYTE		N11     Dn1   v076
	BYTE	W12
	BYTE		N05     Dn1   v060
	BYTE	W06
	BYTE		N17     Cn1   v108
	BYTE		N11     Dn1   v092
	BYTE	W12
	BYTE		N05     Dn1   v064
	BYTE	W06
	BYTE		N11     Cs1   v092
	BYTE		N11     Dn1   v076
	BYTE	W11
// 020   ----------------------------------------
	BYTE	W01
	BYTE		N05     Cs1   v072
	BYTE		N05     Dn1   v060
	BYTE	W06
	BYTE		N17     Cn1   v112
	BYTE		N11     Dn1   v084
	BYTE	W12
	BYTE		N05     Dn1   v060
	BYTE	W06
	BYTE		N17     Cs1   v092
	BYTE		N11     Dn1   v084
	BYTE	W12
	BYTE		N05     Dn1   v072
	BYTE	W06
	BYTE		        Cn1   v108
	BYTE		N17     Cs1   v084
	BYTE	W06
	BYTE		N05     Cn1   v096
	BYTE	W06
	BYTE		        Cn1   v100
	BYTE	W06
	BYTE		        Cn1   v104
	BYTE		N17     Cs1   v084
	BYTE	W06
	BYTE		N05     Cn1   v092
	BYTE	W06
	BYTE		        Cn1   v100
	BYTE	W06
	BYTE		        Cn1   v116
	BYTE		N17     Cs1   v084
	BYTE	W06
	BYTE		N05     Cn1   v104
	BYTE	W06
	BYTE		        Cn1   v112
	BYTE	W05
	BYTE	GoTo
	 POIN2	YuanDelta_8_B1
YuanDelta_8_B2:
// 021   ----------------------------------------
	BYTE	FINE

//******************************************************//
	ALIGN 4

YuanDelta:
	BYTE	8	// NumTrks
	BYTE	0	// NumBlks
	BYTE	YuanDelta_pri	// Priority
	BYTE	YuanDelta_rev	// Reverb.

	POIN2	YuanDelta_grp

	POIN2	YuanDelta_1
	POIN2	YuanDelta_2
	POIN2	YuanDelta_3
	POIN2	YuanDelta_4
	POIN2	YuanDelta_5
	POIN2	YuanDelta_6
	POIN2	YuanDelta_7
	POIN2	YuanDelta_8

	
